<svg xml:space="preserve" style="enable-background:new 0 0 1024 1024;" viewBox="0 0 1024 1024" y="0px" x="0px" xmlns:xlink="http://www.w3.org/1999/xlink" xmlns="http://www.w3.org/2000/svg" id="图层_1" version="1.1">
<style type="text/css">
	.st0{fill:#FDAAEF;}
	.st1{fill:#7A4E71;}
	.st2{fill:#FF9F8E;}
	.st3{fill:#FEF2F2;}
	.st4{fill:#152140;}
	.st5{fill:#F5575D;}
	.st6{opacity:0.4;fill:#FFFFFF;stroke:#0F0F0F;stroke-width:6;stroke-miterlimit:10;}
	.st7{fill:#FFFFFF;}
	.st8{fill:#FF8777;}
	.st9{fill:#FF988D;}
	.st10{fill:#F4F5F0;}
	.st11{fill:#FFADAD;}
	.st12{fill:url(#SVGID_1_);}
</style>
<g>
	<path d="M1024.5,512.44c0,136.76-53.64,261.13-141.07,352.94c-8.46,8.91-17.26,17.54-26.4,25.78
		c-6.22,5.77-12.56,11.27-19.06,16.59c-5.27,4.37-10.65,8.58-16.09,12.72c-0.78,0.62-1.57,1.18-2.35,1.79
		c-0.78,0.62-1.57,1.18-2.35,1.74c-1.74,1.29-3.53,2.58-5.27,3.87c-21.58,15.64-44.45,29.59-68.43,41.64
		c-1.85,1.01-3.7,1.91-5.6,2.8c-11.04,5.44-22.31,10.48-33.74,15.08c-0.95,0.39-1.9,0.78-2.8,1.12c-10.59,4.2-21.3,8.07-32.17,11.49
		c-16.25,5.27-32.9,9.75-49.82,13.28c-23.37,4.99-47.36,8.35-71.8,9.98c-6.73,0.5-13.51,0.84-20.29,1.01
		c-1.01,0.06-2.02,0.06-3.03,0.06c-1.06,0.06-2.13,0.06-3.14,0.06c-1.79,0.06-3.64,0.11-5.44,0.06c-0.22,0.06-0.45,0.06-0.67,0.06
		h-5.6c-1.23,0-2.52,0-3.75-0.06c-3.31,0-6.61-0.11-9.86-0.22c-1.07,0-2.13-0.06-3.2-0.11c-1.01-0.06-2.02-0.11-3.03-0.17
		c-0.84,0-1.68-0.05-2.52-0.11h-0.28c-9.08-0.45-18.1-1.07-27.01-2.07c-1.29-0.11-2.64-0.28-3.92-0.45c-0.22,0-0.39,0-0.56-0.06
		c-30.6-3.31-60.36-9.42-89.06-17.99c-1.18-0.34-2.3-0.67-3.48-1.06c-26.17-7.96-51.4-17.99-75.55-29.93
		c-1.91-0.84-3.75-1.79-5.6-2.75c-0.34-0.17-0.67-0.34-1.01-0.5c-24.32-12.33-47.53-26.68-69.33-42.71
		c-1.06-0.78-2.13-1.57-3.19-2.41c-0.84-0.56-1.63-1.12-2.41-1.74c-0.78-0.56-1.51-1.18-2.3-1.79
		c-16.81-12.67-32.73-26.34-47.81-40.97c-1.62-1.51-3.25-3.14-4.82-4.71c-3.08-3.08-6.11-6.17-9.08-9.3
		c-0.17-0.17-0.28-0.28-0.39-0.45C53.97,773.24,0.5,649.09,0.5,512.44C0.5,229.68,229.74,0.5,512.44,0.5
		C795.26,0.5,1024.5,229.68,1024.5,512.44z" class="st0"></path>
</g>
<ellipse ry="31.59" rx="23.74" cy="772.55" cx="416.38" class="st1"></ellipse>
<ellipse ry="40.55" rx="23.74" cy="794.62" cx="606.94" class="st1" transform="matrix(0.866 -0.5 0.5 0.866 -315.994 409.9286)"></ellipse>
<path d="M658.23,945.3c-14.01-8.58-36.37-19.79-65.86-24.66c-11.55-1.9-34.36-5.44-63.05,0.79
	c-29.2,6.39-49.99,19.73-61.37,28.3c-58.91-42.15-88.78-94.5-75.16-129.3c2.58-6.56,7.4-14.29,16.93-21.8
	c1.12-14.07,1.4-30.1,0-47.7c-1.29-16.93-3.98-32.39-7.29-46.29v-0.06c-3.31-13.95-7.34-26.29-11.26-36.88
	c78.92-8.07,157.83-16.14,236.75-24.21c-5.38,15.75-12.39,38.11-18.83,65.52c-0.17,0.79-0.39,1.57-0.56,2.35
	c-12.22,52.57-8.91,65.97-7.29,71.52c8.52,28.3,34.24,45.4,53.36,54.53C655.76,873.34,656.99,909.32,658.23,945.3z" class="st2"></path>
<path d="M489.7,927.71c0.95,2.19,1.91,4.37,2.97,6.67c-10.65,5.33-18.94,10.99-24.77,15.36
	c-58.85-42.15-88.78-94.5-75.11-129.3c2.47-6.28,6.95-13.62,15.7-20.79c14.63,23.09,30.1,37.16,36.32,43.33
	c25.45,25.11,31.16,51.28,42.37,78.75C487.9,923.61,488.8,925.63,489.7,927.71z" class="st3"></path>
<path d="M658.18,945.31c-7.68-4.71-17.99-10.26-30.54-15.13c0.17-2.97,0.45-6.11,0.73-9.47
	c0.11-2.63,0.45-5.27,0.56-7.79c0-0.39,0.17-1.01,0.17-1.46c4.54-61.82,5.27-69.56,2.02-82.84c-0.51-2.13-1.07-4.37-1.8-6.78
	c8.41,6.73,17.38,11.83,25.28,15.58C655.77,873.34,657,909.32,658.18,945.31z" class="st3"></path>
<path d="M665.5,238.32c15.54-1.36,45.81-1.57,72.53,16.74c36.14,24.76,43.37,68.06,49.59,105.38
	c11.17,66.98-2.67,128.02-6.2,142.57c-10.6,43.77-24.16,64.99-16.12,101.66c1.35,6.18,10.31,47,32.23,49.59
	c10.64,1.26,20.21-6.97,25.42-12.4c-1.25,5.34-4.01,14.04-10.54,22.94c-8.06,10.99-17.74,16.65-22.94,19.22
	c-1.69,4.09-8.77,19.9-26.66,28.52c-22.67,10.92-44.15,1.37-47.11,0c-4.69,1.14-26.78,6.02-45.25-6.82
	c-21.29-14.8-29.33-47.28-16.12-77.48C658.06,498.26,661.78,368.29,665.5,238.32z" class="st4"></path>
<path d="M389.65,238.32c-12.28-2.38-32.06-4.36-53.93,2.48c-38.18,11.94-57.81,42.96-73.77,68.19
	c-11.77,18.6-34.03,53.8-34.71,101.04c-0.6,41.7,15.77,81.87,35.95,131.42c4.86,11.93,14.19,33.74,16.12,63.85
	c1.11,17.3,2.4,42.81-13.64,55.79c-9.72,7.86-25.81,11.14-30.99,4.96c-4.7-5.6-0.88-19.5,11.16-32.85
	c-4.19,0.07-13.14,0.85-20.46,7.13c-13.75,11.81-16.61,38.71-1.24,51.14c9.78,7.91,24.96,8.36,37.81,1.24
	c-3.67,3.36-9.2,7.6-16.74,10.85c-13.54,5.83-25.86,5.12-31.92,4.34c1.58,3.07,5.79,10.13,14.26,14.26
	c16.5,8.04,33.21-2.81,34.09-3.41c2.71,1.52,11.74,6.16,23.25,4.03c7.22-1.34,12.29-4.76,14.88-6.82c2.33,3.25,5.79,6.98,10.85,9.3
	c22.24,10.2,56.55-15.43,71.9-36.26c33.04-44.82,7.71-107.25,4.96-113.75C388.2,462.92,388.92,350.62,389.65,238.32z" class="st4"></path>
<path d="M627.9,643.48c-5.38,15.75-12.39,38.11-18.83,65.52c-27.35,19.5-52.18,28.02-56.1,29.31
	c-15.75,5.21-36.77,12.16-64.12,9.3c-33.4-3.48-62.88-20.18-86.43-42.99v-0.06c-3.31-13.95-7.34-26.29-11.26-36.88
	C470.07,659.63,548.99,651.56,627.9,643.48z" class="st5"></path>
<path d="M664.57,339.36c10.31,16.51,12.28,51.83,15.81,121.81c4.14,82.21,6,123.85-4.65,149.7
	c-32.77,79.58-115.31,108.2-122.74,110.65c-15.75,5.19-36.81,12.14-64.16,9.3c-69.02-7.17-121.15-70.78-139.47-128.32
	c-9.4-29.49-7.01-61.6-1.86-124.6c4.34-53.13,11.16-98.22,17.41-132.59c2-11,7.99-20.82,16.9-27.59
	c15.94-12.11,37.99-25.53,66.11-34.15C523.31,260.45,625.6,276.95,664.57,339.36z" class="st2"></path>
<ellipse ry="46.91" rx="62.9" cy="482.66" cx="444.2" class="st6" transform="matrix(0.2249 -0.9744 0.9744 0.2249 -126.0064 806.9225)"></ellipse>
<circle r="18.34" cy="486.55" cx="449.78" class="st4"></circle>
<circle r="4.99" cy="479.32" cx="458.21" class="st7"></circle>
<ellipse ry="55.07" rx="74.2" cy="474.93" cx="572.3" class="st6" transform="matrix(0.4346 -0.9006 0.9006 0.4346 -104.1683 783.925)"></ellipse>
<ellipse ry="20.16" rx="20.27" cy="482.21" cx="577.34" class="st4" transform="matrix(0.2249 -0.9744 0.9744 0.2249 -22.3634 936.2985)"></ellipse>
<ellipse ry="5.49" rx="5.52" cy="476.51" cx="588.17" class="st7" transform="matrix(0.2249 -0.9744 0.9744 0.2249 -8.4197 942.4373)"></ellipse>
<path d="M552.78,398.83c1.23,1.14,13.87-14.76,32.23-17.82c7.42-1.24,13.25,0.04,14.41,0.31
	c5.33,1.23,9.32,3.47,11.78,5.11c-1.06-2.09-2.84-5.03-5.73-7.9c-6.12-6.07-14.15-8.77-20.15-8.99
	C564.5,368.79,551.29,397.44,552.78,398.83z" class="st4"></path>
<path d="M475.29,398.37c-0.49-7.29-10.06-14.75-18.91-15.96c-10.37-1.42-21.52,5.52-27.9,17.36
	c9.61-7.72,16.07-8.33,20.3-7.28c3.24,0.8,7.38,3.13,15.34,7.59c4.47,2.51,7.64,4.52,9.61,3.25
	C475.55,402.16,475.33,398.89,475.29,398.37z" class="st4"></path>
<g>
	<path d="M504.21,657.94c-1.35,0-2.71-0.03-4.09-0.08c-29.81-1.2-51.83-15.31-62.29-23.62
		c-1.22-0.96-1.42-2.73-0.45-3.94c0.96-1.22,2.73-1.42,3.94-0.45c9.93,7.88,30.82,21.28,59.04,22.4c48.27,2.1,79.17-32.7,84.9-39.66
		c0.99-1.2,2.75-1.37,3.94-0.38c1.2,0.99,1.37,2.75,0.38,3.94C583.7,623.28,552.64,657.94,504.21,657.94z" class="st4"></path>
</g>
<g>
	<path d="M595.19,615.32h-15.57c-1.55,0-2.8-1.25-2.8-2.8s1.25-2.8,2.8-2.8h15.57c1.55,0,2.8,1.25,2.8,2.8
		S596.74,615.32,595.19,615.32z" class="st4"></path>
</g>
<path d="M491.45,675.65c3.6,1.02,12.52,3.03,23.01-0.23c8.31-2.58,13.75-7.26,16.39-9.88c0.06,1.94-0.08,5.21-1.63,8.72
	c-4.4,9.96-18.19,17.33-28.36,12.55C495.29,684.18,492.62,678.76,491.45,675.65z" class="st4"></path>
<ellipse ry="12.49" rx="34.1" cy="538.16" cx="600.1" class="st8" transform="matrix(0.9154 -0.4025 0.4025 0.9154 -165.8486 287.043)"></ellipse>
<ellipse ry="25.49" rx="9.34" cy="541.01" cx="411.99" class="st8" transform="matrix(0.6197 -0.7849 0.7849 0.6197 -267.9298 529.1105)"></ellipse>
<path d="M680.37,504.4c10.98-15.26,26.99-41.4,35.8-77.18c4.1-16.66,16.8-76.64-12.09-140.4
	c-10.49-23.15-30.29-66.86-71.13-76.25c-5.92-1.36-11.53-1.83-16.62-1.78c-9.01,0.08-16.36,7.29-17.08,16.27
	c-1.94,24.15-3.88,48.3-5.81,72.45c8.52,26.51,20.89,38.34,31.15,44.17c9.82,5.58,25.94,10.35,38.12,26.96c0,0,2.17,2.96,4.18,6.51
	C681.37,400.65,680.54,491.04,680.37,504.4z" class="st4"></path>
<path d="M601.8,283.1c-4.11,6.79-17.53,26.42-59.51,40.91c-62.26,21.5-129.01,11.54-159,5.58
	c-11.52,26.19-23.75,61.03-30.69,103.21c-4.83,29.37-6.03,55.83-5.58,78.11c-11.96-17.66-33-53.94-37.66-104.14
	c-1.6-17.22-6.83-84.91,39.05-146.45c5.12-6.87,71.19-92.56,170.62-81.83c34.25,3.7,60.9,17.59,78.02,29.12
	c8.63,5.81,14.48,14.94,15.82,25.25c0.53,4.09,0.78,8.62,0.53,13.51C613.35,247.84,612.25,265.87,601.8,283.1z" class="st4"></path>
<ellipse ry="39.83" rx="26.55" cy="518.07" cx="326.3" class="st2" transform="matrix(0.9959 -0.0905 0.0905 0.9959 -45.5379 31.6497)"></ellipse>
<path d="M342.2,535.28c-0.17-9.28-2.71-18.99-8.97-26.07c-1.52-1.71-3.08-3.38-5.04-4.79c-1.89-1.4-4.51-2.33-6.95-1.75
	c-4.93,1.32-7.25,6.04-8.31,10.2c1.43-4.07,4.42-8.26,8.55-8.82c4.16-0.43,7.08,3.49,9.55,6.9c4.96,6.97,6.28,15.79,5.57,24.16
	c-0.13,1.54,1.01,2.9,2.56,3.03c1.54,0.13,2.9-1.01,3.04-2.56C342.2,535.5,342.2,535.38,342.2,535.28z" class="st4"></path>
<ellipse ry="26.55" rx="39.83" cy="518.07" cx="696.22" class="st2" transform="matrix(0.0905 -0.9959 0.9959 0.0905 117.2766 1164.5641)"></ellipse>
<path d="M680.33,535.28c0.17-9.28,2.71-18.99,8.97-26.07c1.52-1.71,3.08-3.38,5.04-4.79c1.89-1.4,4.51-2.33,6.95-1.75
	c4.93,1.32,7.25,6.04,8.31,10.2c-1.43-4.07-4.42-8.26-8.55-8.82c-4.16-0.43-7.08,3.49-9.55,6.9c-4.96,6.97-6.28,15.79-5.57,24.16
	c0.13,1.54-1.01,2.9-2.56,3.03c-1.54,0.13-2.9-1.01-3.04-2.56C680.33,535.5,680.33,535.38,680.33,535.28z" class="st4"></path>
<path d="M389.53,947.38c0,20.63-8.58,39.85-23.37,55.88c-1.18-0.34-2.3-0.67-3.48-1.06
	c-26.17-7.96-51.4-17.99-75.55-29.93c-1.91-0.84-3.75-1.79-5.6-2.75c-0.34-0.17-0.67-0.34-1.01-0.5
	c-24.32-12.33-47.53-26.68-69.33-42.71c-1.06-0.78-2.13-1.57-3.19-2.41c-0.84-0.56-1.63-1.12-2.41-1.74
	c-0.78-0.56-1.51-1.18-2.3-1.79c-16.81-12.67-32.73-26.34-47.81-40.97c-1.62-1.51-3.25-3.14-4.82-4.71
	c25.33-17.77,59.97-28.7,98.08-28.7C326.48,845.99,389.53,891.39,389.53,947.38z" class="st9"></path>
<path d="M704.13,987.4c-0.95,0.39-1.9,0.78-2.8,1.12c-10.59,4.2-21.3,8.07-32.17,11.49
	c-16.25,5.27-32.9,9.75-49.82,13.28c-23.37,4.99-47.36,8.35-71.8,9.98c-6.73,0.5-13.51,0.84-20.29,1.01
	c-1.01,0.06-2.02,0.06-3.03,0.06c-1.06,0.06-2.13,0.06-3.14,0.06c-1.79,0.06-3.64,0.11-5.44,0.06c-0.22,0.06-0.45,0.06-0.67,0.06
	h-5.6c-1.23,0-2.52,0-3.75-0.06c-3.31,0-6.61-0.11-9.86-0.22c-1.07,0-2.13-0.06-3.2-0.11c-1.01-0.06-2.02-0.11-3.03-0.17
	c-0.84,0-1.68-0.05-2.52-0.11h-0.28c-9.08-0.45-18.1-1.07-27.01-2.07c-1.29-0.11-2.64-0.28-3.92-0.45
	c-0.11-0.17-0.22-0.39-0.28-0.62v-0.06c-4.2-8.8-6.5-18.16-6.5-27.97c0-16.14,6.17-31.28,16.98-44.33
	c6.34-7.74,14.35-14.74,23.65-20.79c22.81-14.85,53.41-23.93,87.04-23.93c18.66,0,36.43,2.8,52.41,7.85v0.06
	c10.26,3.14,19.79,7.29,28.36,12.22h0.06C684.29,939.03,702,961.78,704.13,987.4z" class="st10"></path>
<g>
	<path d="M629.98,953.82c-1.34-0.28-2.8-0.56-4.09-0.73h-0.05c-11.43-2.19-23.2-3.36-35.48-3.36
		c-29.65,0-57.12,6.61-80.09,17.99c-25.39,12.72-44.84,31.28-54.76,52.91v0.06c-0.11,0.17-0.22,0.39-0.28,0.56
		c0.17,0.06,0.34,0.06,0.56,0.06c1.29,0.17,2.64,0.34,3.92,0.45c8.91,1.01,17.93,1.63,27.01,2.07c8.35-12.72,22.03-23.6,39.07-31.39
		c18.27-8.52,40.63-13.45,64.57-13.45c11.54,0,22.81,1.18,33.18,3.36c1.29,0.28,2.63,0.56,3.92,0.84
		c15.75,3.53,29.98,9.36,41.7,16.81c10.88-3.42,21.58-7.29,32.17-11.49C683.28,972.15,658.45,959.93,629.98,953.82z" class="st2"></path>
</g>
<path d="M857.03,891.16c-6.22,5.77-12.56,11.27-19.06,16.59c-5.27,4.37-10.65,8.58-16.09,12.72
	c-0.78,0.62-1.57,1.18-2.35,1.79c-0.78,0.62-1.57,1.18-2.35,1.74c-1.74,1.29-3.53,2.58-5.27,3.87
	c-21.58,15.64-44.45,29.59-68.43,41.64c-1.85,1.01-3.7,1.91-5.6,2.8c-11.04,5.44-22.31,10.48-33.74,15.08
	c-0.95,0.39-1.9,0.78-2.8,1.12c-10.59,4.2-21.3,8.07-32.17,11.49c-16.25,5.27-32.9,9.75-49.82,13.28c1.18-8.58,2.52-18.61,4.03-30.1
	c0-0.28,0.17-0.56,0.17-0.84c0,0,0-0.17,0-0.34c0.11-0.9,0.17-1.74,0.22-2.52c0.28-2.58,0.56-5.1,1.06-11.71v-0.06
	c0.22-3.42,0.56-7.85,1.01-13.9v-0.73c0.45-5.89,1.01-13.39,1.79-22.92c0.17-2.97,0.45-6.11,0.73-9.47
	c0.11-2.63,0.45-5.27,0.56-7.79c0-0.39,0.17-0.95,0.17-1.4v-0.06c4.54-61.82,5.27-69.56,2.02-82.84c0-0.06,0-0.06-0.06-0.11
	c-0.45-2.07-1.01-4.26-1.74-6.61v-0.06c-2.02-6.73-4.93-14.63-9.36-23.15c-4.82-9.14-11.32-19.11-20.23-29.54
	c0.05-2.07,0.05-4.15,0.05-6.22c0.11-1.68,0.22-3.48,0.45-5.38c0.06-0.79,0.17-1.63,0.22-2.47c0.11-0.95,0.22-1.96,0.39-2.97
	c0-0.5,0.11-1.06,0.17-1.57c0.22-1.63,0.45-3.25,0.73-5.05h0.06c3.7,1.96,8.01,4.37,12.72,7.34c5.5,3.42,11.55,7.62,17.94,12.67
	c15.64,12.72,24.1,23.65,29.09,29.2c17.38,19.45,40.92,26.17,87.21,38.73c45.79,12.39,75.61,14.24,92.7,21.07
	c4.04,1.63,7.4,3.53,10.03,6.05c2.35,2.07,4.2,4.6,5.55,7.68C860.39,876.03,859.1,884.55,857.03,891.16z" class="st11"></path>
<path d="M841.45,854.51c-4.48,4.04-9.08,7.96-13.96,11.94c-4.54,3.81-9.58,7.79-15.97,12.67l-2.35,1.79
	c-0.67,0.56-1.4,1.01-2.24,1.62l-5.21,3.81c-21.41,15.58-44.22,29.43-67.82,41.31c-1.74,0.95-3.53,1.79-5.38,2.69
	c-11.04,5.38-22.25,10.42-33.4,14.91c-0.9,0.34-1.79,0.73-2.75,1.06c-11.1,4.43-21.52,8.13-31.83,11.38
	c-11.88,3.87-23.82,7.23-35.7,10.03v0.06c-0.51,6.61-0.79,9.14-1.06,11.71c13.39-3.08,26.85-6.78,40.19-11.1
	c10.54-3.31,21.18-7.12,32.45-11.6c0.95-0.34,1.96-0.78,2.91-1.18c11.38-4.54,22.87-9.7,34.08-15.19c1.96-0.95,3.92-1.9,5.72-2.86
	c23.99-12.05,47.25-26.23,69.22-42.15l5.27-3.87c0.84-0.62,1.68-1.23,2.47-1.85l2.3-1.74c6.45-4.93,11.66-9.02,16.26-12.84
	c5.94-4.88,11.49-9.7,16.87-14.57C848.85,858.04,845.48,856.13,841.45,854.51z" class="st7"></path>
<path d="M547.53,1023.27c-6.73,0.5-13.51,0.84-20.29,1.01c-1.01,0.06-2.02,0.06-3.03,0.06
	c-1.06,0.06-2.13,0.06-3.14,0.06c-1.79,0.06-3.64,0.11-5.44,0.06c-0.22,0.06-0.45,0.06-0.67,0.06h-5.6c-1.23,0-2.52,0-3.75-0.06
	c-3.31,0-6.61-0.11-9.86-0.22c-1.07,0-2.13-0.06-3.2-0.11c-1.01-0.06-2.02-0.11-3.03-0.17c-0.84,0-1.68-0.05-2.52-0.11h-0.28
	c-9.08-0.45-18.1-1.07-27.01-2.07c-1.29-0.11-2.64-0.28-3.92-0.45c-0.22,0-0.39,0-0.56-0.06c-30.6-3.31-60.36-9.42-89.06-17.99
	c-1.18-0.34-2.3-0.67-3.48-1.06c-28.36-20.23-52.97-40.02-60.31-46.02c-32.34-26.01-71.35-42.82-104.92-67.2
	c-3.81-2.8-13.45-9.92-27.18-10.99c-5.16-0.34-10.15,0.22-14.8,1.4c-1.62-1.51-3.25-3.14-4.82-4.71c-3.08-3.08-6.11-6.17-9.08-9.3
	c-0.17-0.17-0.28-0.28-0.39-0.45c9.75-6,23.82-11.88,44-18.61c7.62-2.52,16.14-5.16,25.67-8.01c0.17-0.06,0.39-0.11,0.62-0.17
	c52.18-15.64,77.74-19.73,107.84-36.99c10.2-5.83,18.55-10.65,28.47-19.45c16.81-14.74,18.55-23.37,34.53-34.47
	c9.36-6.56,19.28-10.87,25.73-12.39c0.34,2.63,0.67,5.27,0.9,8.01c-4.88,4.76-10.99,11.71-12.61,21.3
	c-1.35,7.9,0.56,16.53,10.82,33.35c0.45,0.73,0.9,1.46,1.35,2.13c14.63,23.09,30.1,37.16,36.32,43.33
	c25.45,25.11,31.16,51.28,42.37,78.75c0.73,1.85,1.57,3.81,2.47,5.83c0,0.05,0.06,0.11,0.06,0.17c0.95,2.19,1.9,4.37,2.97,6.67
	c4.54,9.87,10.37,20.85,17.6,33.35c2.47,4.15,5.1,8.52,7.96,13.06c2.35,3.7,4.82,7.57,7.45,11.49c0.05,0.06,0.05,0.11,0.11,0.17
	C532.12,1002.02,539.35,1012.28,547.53,1023.27z" class="st11"></path>
<g>
	<path d="M518.22,980.78h-0.56l-3.36-0.17c-0.73,0-1.4-0.05-2.52-0.11h-0.17c-10.37-0.5-18.78-1.18-26.68-2.07
		c-1.18-0.06-2.47-0.22-3.64-0.39c-0.11,0-0.28-0.05-0.39-0.05h-0.28c-29.65-3.25-59.3-9.19-88.16-17.82
		c-0.84-0.22-1.63-0.5-2.47-0.73c-29.37-21.02-54.53-41.42-59.3-45.34c-18.1-14.52-38.39-26.34-58.01-37.78
		c-15.86-9.25-32.23-18.78-47.19-29.59c-2.47-1.85-7.51-5.55-14.63-8.41c-9.53,2.86-18.05,5.49-25.67,8.01
		c3.19-0.5,6.33-0.67,9.41-0.45c12.11,0.9,20.63,7.17,24.33,9.92c15.36,11.15,32,20.85,48.09,30.21
		c19.28,11.21,39.18,22.81,56.61,36.77c4.82,3.98,30.6,24.89,60.59,46.24c0.45,0.34,0.95,0.62,1.51,0.78
		c1.23,0.39,2.41,0.79,3.59,1.12c29.31,8.74,59.52,14.85,89.73,18.16c0.45,0.05,0.84,0.11,1.12,0.11c1.23,0.17,2.58,0.34,3.7,0.39
		c7.96,0.95,16.64,1.57,27.35,2.13l0.28-5.6l-0.11,5.6c0.96,0.06,1.91,0.11,2.64,0.11l3.03,0.17c1.18,0.05,2.3,0.11,3.59,0.11
		c1.68,0.06,3.36,0.11,5.05,0.17C523.04,988.35,520.57,984.48,518.22,980.78z" class="st7"></path>
</g>
<linearGradient gradientTransform="matrix(1 0 0 1 0 12.4076)" y2="529.9701" x2="447.3573" y1="580.3187" x1="534.5638" gradientUnits="userSpaceOnUse" id="SVGID_1_">
	<stop style="stop-color:#DD5543;stop-opacity:0" offset="0.2403"></stop>
	<stop style="stop-color:#DD5543;stop-opacity:0.6" offset="1"></stop>
</linearGradient>
<path d="M496.49,612.96l-10.7-2.07c-26.84-5.18-44.39-31.14-39.21-57.97l1.74-9.02c3.05-15.77,18.3-26.09,34.07-23.04
	l11.2,2.16c29.19,5.64,48.28,33.88,42.63,63.07l0,0C532.68,604.49,514.89,616.51,496.49,612.96z" class="st12"></path>
</svg>
