<svg xml:space="preserve" style="enable-background:new 0 0 1024 1024;" viewBox="0 0 1024 1024" y="0px" x="0px" xmlns:xlink="http://www.w3.org/1999/xlink" xmlns="http://www.w3.org/2000/svg" id="图层_1" version="1.1">
<style type="text/css">
	.st0{fill:#756EFF;}
	.st1{fill:#FF9F8E;}
	.st2{fill:#F5575D;}
	.st3{fill:#152140;}
	.st4{fill:url(#SVGID_1_);}
	.st5{fill:#F5B316;}
	.st6{fill:#005589;}
	.st7{opacity:0.4;}
	.st8{fill:#FFFFFF;}
	.st9{fill:#0F0F0F;}
	.st10{fill:#FF8777;}
	.st11{fill:#DD5543;}
	.st12{fill:url(#SVGID_2_);}
</style>
<g>
	<path d="M1024.5,512.44c0,124.87-44.67,239.44-119.1,328.33c-7.01,8.46-14.35,16.65-21.91,24.61
		c-5.94,6.28-12,12.39-18.27,18.22c-8.74,8.46-17.82,16.48-27.18,24.16c-5.32,4.37-10.7,8.58-16.08,12.72
		c-0.84,0.62-1.63,1.18-2.35,1.79c-0.79,0.62-1.63,1.18-2.36,1.74c-1.79,1.29-3.59,2.58-5.32,3.87
		c-21.52,15.64-44.39,29.59-68.43,41.64c-1.85,1.01-3.7,1.91-5.6,2.8c-6.73,3.31-13.51,6.45-20.4,9.42
		c-58.46,25.67-122.74,40.63-190.23,42.54c-0.95,0.06-2.02,0.06-3.03,0.06c-1.06,0.06-2.13,0.06-3.08,0.06
		c-1.85,0.06-3.7,0.11-5.5,0.06c-0.22,0.06-0.45,0.06-0.67,0.06h-5.6c-1.18,0-2.47,0-3.76-0.06c-3.25,0-6.61-0.11-9.81-0.22
		c-1.06,0-2.18-0.06-3.25-0.11c-0.96-0.06-2.02-0.11-3.03-0.17c-0.84,0-1.68-0.05-2.47-0.11c-9.25-0.45-18.33-1.07-27.35-2.07
		c-50.89-5.1-99.54-17.82-144.89-36.88c-9.36-3.92-18.61-8.13-27.68-12.61c-1.85-0.84-3.76-1.79-5.6-2.75
		c-0.34-0.17-0.67-0.34-0.96-0.5c-24.38-12.33-47.58-26.68-69.33-42.71c-1.12-0.78-2.13-1.57-3.25-2.41
		c-0.84-0.56-1.63-1.12-2.35-1.74c-0.84-0.56-1.52-1.18-2.36-1.79c-12.55-9.47-24.6-19.5-36.21-30.1
		c-8.8-7.96-17.26-16.25-25.45-24.89c-8.01-8.41-15.69-17.04-23.09-26.01C44.83,750.82,0.5,636.82,0.5,512.44
		C0.5,229.68,229.74,0.5,512.5,0.5C795.32,0.5,1024.5,229.68,1024.5,512.44z" class="st0"></path>
</g>
<path d="M659.79,945.3c-14.01-8.58-36.37-19.79-65.86-24.66c-11.55-1.9-34.36-5.44-63.05,0.79
	c-29.2,6.39-49.99,19.73-61.37,28.3c-58.91-42.15-88.78-94.5-75.16-129.3c2.58-6.56,7.4-14.29,16.93-21.8
	c1.12-14.07,1.4-30.1,0-47.7c-0.06-0.73-0.11-1.51-0.22-2.24c-1.29-15.58-3.76-29.87-6.78-42.82c-0.11-0.39-0.17-0.84-0.28-1.23
	v-0.06c-3.31-13.95-7.34-26.29-11.26-36.88c78.92-8.07,157.83-16.14,236.75-24.21c-3.81,11.15-8.46,25.67-13.11,42.93
	c-1.9,7.06-3.81,14.63-5.72,22.59c-0.17,0.79-0.39,1.57-0.56,2.35c-6.56,28.19-8.63,45.12-8.91,55.6
	c-0.22,9.08,0.89,13.34,1.63,15.92c8.52,28.3,34.24,45.4,53.36,54.53C657.33,873.34,658.56,909.32,659.79,945.3z" class="st1"></path>
<path d="M616.36,686.42c-1.9,7.06-3.81,14.63-5.72,22.59c-0.17,0.79-0.39,1.57-0.56,2.35
	c-6.56,28.19-8.63,45.12-8.91,55.6c-14.57,6.56-25.22,9.81-27.8,10.59c-17.6,5.21-41.08,12.16-71.57,9.3
	c-34.64-3.25-65.47-17.82-90.74-38.17c-1.29-15.58-3.76-29.87-6.78-42.82C475,699.42,545.68,692.92,616.36,686.42z" class="st2"></path>
<ellipse ry="40.54" rx="60.83" cy="546.38" cx="271.64" class="st1" transform="matrix(0.1204 -0.9927 0.9927 0.1204 -303.4758 750.2398)"></ellipse>
<path d="M300.35,565.25c-4.64-13.39-12.93-26.29-25.38-33.6c-3.02-1.77-6.07-3.45-9.58-4.56
	c-3.41-1.13-7.65-1.25-10.92,0.76c-6.53,4.24-7.67,12.2-7.24,18.75c0.16-6.58,2.5-14.09,8.24-16.86c5.83-2.6,11.93,1.72,17.14,5.49
	c10.5,7.77,16.6,19.95,19.53,32.44c0.54,2.3,2.85,3.73,5.15,3.19c2.3-0.54,3.74-2.85,3.2-5.15
	C300.45,565.56,300.4,565.38,300.35,565.25z" class="st3"></path>
<ellipse ry="65.17" rx="49.4" cy="539.87" cx="774.73" class="st1"></ellipse>
<path d="M738.65,562.3c3.73-14.72,11.41-29.24,24.03-38.17c3.06-2.16,6.17-4.23,9.81-5.74
	c3.54-1.52,8.05-2.03,11.73-0.18c7.36,3.93,9.3,12.33,9.43,19.36c-0.77-7.01-3.95-14.81-10.33-17.25
	c-6.46-2.24-12.58,2.92-17.79,7.41c-10.5,9.25-15.91,22.81-17.89,36.41c-0.37,2.51-2.7,4.24-5.21,3.88
	c-2.51-0.37-4.25-2.7-3.88-5.21C738.58,562.64,738.61,562.45,738.65,562.3z" class="st3"></path>
<path d="M728.91,483.64c6.35-5.91,20.19-20.44,26.03-43.7c3.83-15.26,2.73-28.32,1.4-36.26
	c1.38-0.18,5.74-0.92,9.3-4.65c4.84-5.07,4.28-11.57,4.18-12.55c0.78,0.06,9.27,0.62,12.09-4.18c3.4-5.8-4.19-14.75-5.11-15.81
	c-8.68-10-18.98-6.84-32.08-14.41c-5.57-3.22-12.79-9.04-19.06-20.46c14.23,0.86,26.25,0.78,35.33,0.47
	c19.11-0.67,26.2-2.42,28.82-7.44c1.54-2.96,1.14-6.3,0.47-8.83c-3.4,1.34-8.51,3.08-14.88,4.18c-26.29,4.55-44.29-6.93-61.37-10.69
	c-15.41-3.4-38.05-2.29-69.74,17.67c1.48-4.95,4.43-12.23,10.69-18.6c8.44-8.57,19.55-12.09,46.03-14.41
	c15.21-1.33,35.96-2.31,60.91-0.93c-5.03-2.48-12.13-5.61-20.92-8.37c-12.36-3.87-30.39-9.52-52.07-6.04
	c-17.24,2.76-30.71,10.32-39.98,17.2c4.66-6.87,11.92-15.64,22.78-23.25c26.59-18.62,55.57-16.82,65.09-15.81
	c-4.3-2.89-9.4-5.56-15.34-7.44c-28.75-9.1-55.47,7.07-61.83,11.16c6.13-8.38,15.4-18.3,28.83-26.03
	c8.6-4.96,25.82-14.89,47.88-11.62c12.8,1.89,22.22,7.48,27.43,11.16c-2.71-7.62-6.6-12.32-10.23-15.34
	c-21.81-18.15-67.4-3.19-93.45,21.39c-11.34,10.7-17.98,22.27-21.85,30.68c-0.47-17.79-5.95-28.58-9.76-34.4
	c-27.32-41.74-108.18-41.02-155.28-25.57c-14.39,4.72-28.86,9.2-43.24,13.95c-35.42,11.69-42.43,14.65-53.46,12.09
	c-19.12-4.44-32.59-21.35-36.73-17.67c-2.32,2.07,1.14,8.09-1.4,9.76c-2.61,1.72-9.94-2.23-13.02-8.37
	c-3.28-6.54-0.49-13.05-1.86-13.48c-1.57-0.49-7.02,7.58-8.83,16.74c-0.94,4.77-2.49,17.9,9.3,35.33c-4.77,2.96-8.13,2.68-9.76,2.32
	c-8.57-1.88-13.19-15.53-12.09-26.04c1.02-9.76,6.87-15.67,6.05-16.27c-1.1-0.8-13.02,8.83-18.13,22.32
	c-8.43,22.22,5.29,45.11,8.83,50.68c-6.98,3.03-11.3,1.47-12.55,0.93c-8.07-3.46-12.59-17.17-7.44-33.01
	c-4.94,7.83-10.72,19.88-7.9,32.55c5.51,24.8,39.15,30.04,38.13,46.49c-0.68,10.88-16.18,21.49-28.83,19.99
	c-16.76-1.99-24.28-24.76-25.57-37.66c-1.13-11.31,2-20.51,4.18-25.57c-3.81,3.56-9.11,9.5-12.55,18.13
	c-7.78,19.48-3.14,45.25,11.16,55.79c19.52,14.38,55.22-0.99,55.33-0.47c0.09,0.46-28.24,3.83-50.21,22.32
	c-3.28,2.76-11.52,10.15-9.76,13.95c2.44,5.25,22.54,0.38,23.25,3.26c0.63,2.55-15.13,6.62-14.88,12.09
	c0.18,3.77,7.78,3.99,13.48,10.23c6.54,7.16,5.34,16.52,6.05,23.25c1.06,10.1,7.44,24.02,31.61,39.98
	C451.2,490.77,590.05,487.2,728.91,483.64z" class="st3"></path>
<path d="M362.56,326.03c-17.58,19.75-27.15,54.66-45.56,123.67c-17.56,65.81-26.3,99.24-24.18,125.53
	c0.63,7.86,6.52,70.78,50.21,120.88c80.48,92.3,253.63,100.27,343.11,16.74c42.27-39.46,54.58-88.82,59.51-109.72
	c31.28-132.62-53.13-252.54-96.67-303.76c-14.43-16.98-34.35-28.28-56.34-31.93c-33.81-5.6-77.28-7.4-125.01,4.67
	C435.03,280.35,393.98,290.73,362.56,326.03z" class="st1"></path>
<linearGradient y2="602.9269" x2="530.4201" y1="778.8854" x1="530.4201" gradientUnits="userSpaceOnUse" id="SVGID_1_">
	<stop style="stop-color:#E9705E;stop-opacity:0.8" offset="0"></stop>
	<stop style="stop-color:#FF9F8E;stop-opacity:0" offset="0.6685"></stop>
</linearGradient>
<ellipse ry="87.98" rx="93.83" cy="690.91" cx="530.42" class="st4"></ellipse>
<path d="M707.64,390.19c-7.3-14.07-15.64-23.74-21.65-29.75c-7.46-7.47-28.82-28.9-43.75-23.25
	c-4.98,1.88-7.38,6.05-11.98,5.11c-5.09-1.04-6.85-7.12-10.59-12.55c-3.88-5.64-11.02-12.21-25.33-16.27
	c1.72,0.68,10.45,4.34,14.28,13.95c2.21,5.55,1.77,10.55,1.38,13.02c-7.44-7.02-18.08-15.34-32.24-21.85
	c-33.82-15.56-65.65-10.71-78.76-7.9c7.9-0.04,20.27,0.92,34.08,6.51c9.34,3.78,16.54,8.55,21.65,12.55
	c-5.72-1.06-14.34-2.58-24.87-4.18c-23.45-3.56-35.17-5.34-48.82-5.11c-9.37,0.15-23.22,1.26-40.07,6.04
	c8.36-2.72,28.39-7.83,48.36,1.39c3.86,1.78,7.22,3.87,10.13,6.04c-28.33-6.06-49.46-3.26-63.56,0.47
	c-8.17,2.16-23.52,8.91-53.89,22.32c-30.54,13.49-40.84,18.65-52.51,14.41c-11.71-4.25-18.25-15.6-21.65-23.25
	c1.41-10.36,4.87-25.93,14.74-41.38c33.75-52.84,110.04-56.52,153.84-58.58c67.34-3.16,122.97,14.59,160.12,31.15
	c11.86,8.5,29.67,23.46,45.1,46.96C698.27,351.36,704.82,375.45,707.64,390.19z" class="st3"></path>
<path d="M905.4,840.77c-7.01,8.46-14.35,16.65-21.91,24.61c-5.94,6.28-12,12.39-18.27,18.22
	c-8.74,8.46-17.82,16.48-27.18,24.16c-5.32,4.37-10.7,8.58-16.08,12.72c-0.84,0.62-1.63,1.18-2.35,1.79
	c-0.79,0.62-1.63,1.18-2.36,1.74c-1.79,1.29-3.59,2.58-5.32,3.87c-21.52,15.64-44.39,29.59-68.43,41.64c-1.85,1.01-3.7,1.91-5.6,2.8
	c-6.73,3.31-13.51,6.45-20.4,9.42c-58.46,25.67-122.74,40.63-190.23,42.54c-0.95,0.06-2.02,0.06-3.03,0.06
	c-1.06,0.06-2.13,0.06-3.08,0.06c-1.85,0.06-3.7,0.11-5.5,0.06c-0.22,0.06-0.45,0.06-0.67,0.06h-5.6c-1.18,0-2.47,0-3.76-0.06
	c-3.25,0-6.61-0.11-9.81-0.22c-1.06,0-2.18-0.06-3.25-0.11c-0.96-0.06-2.02-0.11-3.03-0.17c-0.84,0-1.68-0.05-2.47-0.11
	c-9.25-0.45-18.33-1.07-27.35-2.07c-50.89-5.1-99.54-17.82-144.89-36.88c-9.36-3.92-18.61-8.13-27.68-12.61
	c-1.85-0.84-3.76-1.79-5.6-2.75c-0.34-0.17-0.67-0.34-0.96-0.5c-24.38-12.33-47.58-26.68-69.33-42.71
	c-1.12-0.78-2.13-1.57-3.25-2.41c-0.84-0.56-1.63-1.12-2.35-1.74c-0.84-0.56-1.52-1.18-2.36-1.79c-12.55-9.47-24.6-19.5-36.21-30.1
	c-8.8-7.96-17.26-16.25-25.45-24.89c-8.01-8.41-15.69-17.04-23.09-26.01c14.74-9.19,30.83-16.53,48.54-22.31
	c39.85-13.17,88.05-18.78,147.74-21.19c29.37-1.23,61.49-1.68,96.8-1.85h0.67c-0.22,1.35-0.45,2.75-0.45,4.15
	c0,28.42,45.9,51.45,102.51,51.45c44.28,0,81.89-14.12,96.18-33.85c1.96-2.69,4.43-4.88,7.23-6.33c2.8-1.46,5.94-2.13,9.25-1.91
	c22.59,1.68,50.95,3.42,87.55,5.16c1.01,0.06,1.96,0.11,2.91,0.11c63.5,3.03,110.81,4.2,147.74,13
	C880.18,829.34,893.46,834.1,905.4,840.77z" class="st5"></path>
<path d="M314.82,795.88v189c-9.36-3.92-18.61-8.13-27.68-12.61c-1.85-0.84-3.76-1.79-5.6-2.75
	c-0.34-0.17-0.67-0.34-0.96-0.5c-24.38-12.33-47.58-26.68-69.33-42.71c-1.12-0.78-2.13-1.57-3.25-2.41
	c-0.84-0.56-1.63-1.12-2.35-1.74c-0.84-0.56-1.52-1.18-2.36-1.79c-12.55-9.47-24.6-19.5-36.21-30.1v-73.2
	C206.92,803.9,255.13,798.29,314.82,795.88z" class="st6"></path>
<path d="M865.21,825.81v57.79c-8.74,8.46-17.82,16.48-27.18,24.16c-5.32,4.37-10.7,8.58-16.08,12.72
	c-0.84,0.62-1.63,1.18-2.35,1.79c-0.79,0.62-1.63,1.18-2.36,1.74c-1.79,1.29-3.59,2.58-5.32,3.87
	c-21.52,15.64-44.39,29.59-68.43,41.64c-1.85,1.01-3.7,1.91-5.6,2.8c-6.73,3.31-13.51,6.45-20.4,9.42V812.81
	C780.97,815.83,828.28,817.01,865.21,825.81z" class="st6"></path>
<g class="st7">
	<path d="M510.2,479.66c-13.11,38.67-48.43,61.6-78.92,51.28c-30.44-10.37-44.5-50.11-31.33-88.78
		c8.35-24.55,25.61-42.77,44.95-50.11c7.23-2.8,14.68-4.04,22.08-3.48c2.18,1.18,4.37,2.47,6.61,3.81
		c5.05,3.14,10.09,6.61,14.96,10.37c5.89,4.6,11.27,9.47,15.92,14.29c0.05,0,0.05,0.06,0.05,0.06c2.13,2.13,4.09,4.26,5.83,6.28
		c2.07,5.44,3.48,11.27,4.2,17.43C516.03,453.09,514.69,466.43,510.2,479.66z" class="st8"></path>
	<path d="M517.66,442.78c-0.45-4.65-1.23-9.19-2.41-13.56c-1.12-1.4-2.3-2.86-3.59-4.37c-0.39-0.45-0.84-0.95-1.29-1.46
		c-1.74-2.02-3.7-4.15-5.83-6.28c1.4,2.63,2.64,5.49,3.7,8.46c1.46,4.2,2.58,8.57,3.25,13.11c1.96,12.84,0.62,26.62-3.92,40.02
		c-12.61,37.16-46.46,59.41-75.38,49.55c-13.9-4.71-24.66-16.09-30.27-32c-5.71-16.2-5.49-35.09,0.67-53.19
		c6.17-18.1,17.49-33.24,31.84-42.54c4.37-2.86,8.8-5.04,13.34-6.5c5.33-1.91,10.65-2.8,15.97-2.8c3.31,0,6.61,0.39,9.86,1.18
		c-2.24-1.35-4.43-2.63-6.61-3.81c-1.74-1.01-3.53-1.96-5.27-2.91c-6.56,0.22-13.12,1.74-19.62,4.48
		c-3.59,1.51-7.18,3.42-10.71,5.66c-15.47,10.03-27.58,26.17-34.13,45.45c-6.56,19.28-6.78,39.46-0.62,56.83
		c6.22,17.6,18.22,30.21,33.74,35.48c5.21,1.79,10.54,2.63,15.92,2.63c27.41,0,55.21-22.14,66.58-55.66
		C517.15,468,518.72,455.05,517.66,442.78z" class="st9"></path>
</g>
<ellipse ry="14.73" rx="40.22" cy="542.9" cx="432.6" class="st10" transform="matrix(0.9771 -0.2126 0.2126 0.9771 -105.5523 104.408)"></ellipse>
<g>
	<path d="M522.87,444.63c-0.78,0.45-2.3-0.06-5.21-1.85c-0.9-0.56-1.91-1.18-3.08-1.96c-0.89-0.62-1.9-1.29-3.03-2.07
		c0,0-0.05,0-0.05-0.06c-8.57-5.88-23.32-16.65-48.26-33.97c-5.83-4.09-10.99-7.62-15.47-10.7c-1.01-0.67-1.96-1.29-2.86-1.96
		c-0.96-0.62-1.91-1.29-2.8-1.91c-5.66-3.81-10.09-6.84-13.51-9.19l-0.06,0.05c-8.91-6.16-11.38-8.01-11.04-9.14
		c0.67-2.24,13.96,0.28,31.05,7.57c4.2,1.79,8.63,3.87,13.17,6.22c1.74,0.95,3.53,1.91,5.27,2.91c2.18,1.18,4.37,2.47,6.61,3.81
		c5.05,3.14,10.09,6.61,14.96,10.37c5.89,4.6,11.27,9.47,15.92,14.29c0.05,0,0.05,0.06,0.05,0.06c2.13,2.13,4.09,4.26,5.83,6.28
		c0.45,0.5,0.9,1.01,1.29,1.46c1.29,1.51,2.47,2.97,3.59,4.37C521.58,437.4,524.66,443.62,522.87,444.63z" class="st3"></path>
</g>
<g>
	<g>
		<circle r="12.85" cy="459.26" cx="457.56" class="st3"></circle>
	</g>
	<g>
		<circle r="3.5" cy="454.2" cx="451.65" class="st8"></circle>
	</g>
</g>
<g class="st7">
	<path d="M635.47,477.47c-10.99,39.35-40.47,65.52-65.86,58.4c-25.39-7.06-37.1-44.73-26.12-84.02
		c0.95-3.36,2.02-6.67,3.25-9.86c2.07-5.49,4.48-10.65,7.23-15.41c1.51-0.78,3.03-1.57,4.65-2.3c5.77-2.75,12.11-5.44,18.83-7.62
		c15.8-5.16,32.06-7.62,45.51-8.41c0.78-0.06,1.63-0.11,2.41-0.11c1.18-0.06,2.3-0.11,3.36-0.17c2.13,3.03,3.98,6.45,5.44,10.2
		C640.68,434.03,641.58,455.5,635.47,477.47z" class="st8"></path>
	<path d="M638.72,422.54c-0.56-1.74-1.12-3.42-1.79-5.04c-1.4-3.48-2.97-6.67-4.82-9.59c-1.06,0-2.19,0.06-3.36,0.06
		c-1.06,0.06-2.19,0.11-3.36,0.17c2.41,3.08,4.43,6.73,6.11,10.76c0.67,1.68,1.29,3.42,1.85,5.27c4.82,15.41,4.6,34.02-0.56,52.57
		c-10.54,37.78-38.56,63.11-62.44,56.44c-23.88-6.67-34.69-42.82-24.16-80.6c1.12-3.98,2.41-7.85,3.92-11.55
		c2.41-6.05,5.27-11.66,8.52-16.76c-1.62,0.73-3.14,1.51-4.65,2.3c-1.57,0.78-3.08,1.63-4.49,2.41c-2.3,4.37-4.32,9.02-6.11,13.9
		c-0.95,2.64-1.79,5.38-2.58,8.18c-11.38,40.75,1.18,80.04,28.02,87.49c3.03,0.84,6.11,1.29,9.19,1.29
		c12.22,0,24.72-6.33,35.42-17.26c10.76-10.87,19.67-26.29,24.72-44.34C643.6,458.69,643.82,438.91,638.72,422.54z" class="st9"></path>
</g>
<ellipse ry="40.22" rx="14.73" cy="549.47" cx="595.28" class="st10" transform="matrix(0.2126 -0.9771 0.9771 0.2126 -68.211 1014.2859)"></ellipse>
<g>
	<path d="M654.75,411.61c-0.06,1.12-2.97,2.02-13.45,4.82l-0.05-0.06c-1.29,0.34-2.75,0.73-4.32,1.12
		c-0.84,0.22-1.79,0.45-2.74,0.67c-0.9,0.28-1.74,0.5-2.69,0.73c-7.68,2.02-17.71,4.65-30.83,8.18
		c-23.93,6.44-40.02,11.04-50.55,13.95c-1.23,0.39-2.35,0.67-3.36,0.95c-1.12,0.34-2.13,0.56-3.08,0.84c-0.11,0-0.22,0.06-0.28,0.06
		c-8.24,2.13-11.49,2.69-12.39,1.63c-1.51-1.79,5.55-8.13,17.26-14.85c0.39-0.22,0.78-0.45,1.23-0.67c1.4-0.78,2.91-1.63,4.49-2.41
		c1.51-0.78,3.03-1.57,4.65-2.3c5.77-2.75,12.11-5.44,18.83-7.62c15.8-5.16,32.06-7.62,45.51-8.41c0.78-0.06,1.63-0.11,2.41-0.11
		c1.18-0.06,2.3-0.11,3.36-0.17c1.18,0,2.3-0.06,3.36-0.06C645.73,407.86,654.86,409.6,654.75,411.61z" class="st3"></path>
</g>
<g>
	<g>
		<circle r="12.85" cy="470.89" cx="589.36" class="st3"></circle>
	</g>
	<g>
		<circle r="3.5" cy="465.83" cx="595.28" class="st8"></circle>
	</g>
</g>
<path d="M545.32,601.75c22.6,9.46,38.18,27.99,40.67,48.76c2.69,22.47-10.78,39.16-13.47,42.58
	c-18.99,23.66-53.62,30.16-80.1,19.58c-2.69-1.05-34.5-14.26-38.7-42.12c-2.17-14.46,3.94-26.61,8.87-36.34
	c4.8-9.46,10.64-16.89,16.16-22.54" class="st11"></path>
<path d="M450.09,700.14c-5.02,11.32-6.79,20.55-7.45,27.07c-0.31,3.08-0.55,7.29-2.36,12.9
	c-2.09,6.46-4.26,13.19-9.99,14.9c-4.47,1.34-10.1-0.69-12.9-4.54c-3.82-5.26-1.28-12.43,0.36-17.08
	C424.03,715.62,440.73,705.04,450.09,700.14z" class="st8"></path>
<path d="M595.01,683.8c6.52,5.4,10.42,10.5,12.81,14.29c1.13,1.79,2.56,4.29,5.38,7.17c3.25,3.31,6.63,6.77,10.66,6.07
	c3.14-0.55,5.97-3.5,6.51-6.71c0.73-4.38-3.01-8-5.43-10.34C615.68,685.32,602.23,683.94,595.01,683.8z" class="st8"></path>
<path d="M519.94,603.84c-2.35,0.22-4.35,1.84-4.96,4.11c-1.11,4.12-2.11,8.51-2.93,13.15
	c-3.37,19.06-2.6,35.93-0.73,49.06c1.65-11.68,3.63-23.81,6-36.34c1.98-10.48,4.12-20.6,6.36-30.34L519.94,603.84z" class="st8"></path>
<path d="M672.61,939.71h-58.86c-0.56,0-1.02-0.45-1.02-1.02v-10.99c0-0.56,0.45-1.02,1.02-1.02h58.86
	c0.56,0,1.02,0.45,1.02,1.02v10.99C673.63,939.25,673.17,939.71,672.61,939.71z" class="st6"></path>
<path d="M672.61,973.34h-58.86c-0.56,0-1.02-0.45-1.02-1.02v-10.99c0-0.56,0.45-1.02,1.02-1.02h58.86
	c0.56,0,1.02,0.45,1.02,1.02v10.99C673.63,972.88,673.17,973.34,672.61,973.34z" class="st6"></path>
<g>
	<path d="M441.07,629.78c-1,0-1.98-0.54-2.48-1.49c-0.72-1.37-0.2-3.07,1.17-3.79c26.17-13.81,54.29-21.84,83.55-23.88
		c23.46-1.6,46.92,0.7,69.74,6.91c1.49,0.41,2.37,1.95,1.96,3.44c-0.41,1.49-1.91,2.39-3.44,1.96c-22.21-6.05-45.04-8.31-67.87-6.73
		c-28.49,1.98-55.85,9.8-81.33,23.24C441.96,629.68,441.51,629.78,441.07,629.78z" class="st11"></path>
</g>
<linearGradient gradientTransform="matrix(1 0 0 1 0 12.4076)" y2="519.7222" x2="481.3489" y1="570.0708" x1="568.5554" gradientUnits="userSpaceOnUse" id="SVGID_2_">
	<stop style="stop-color:#DD5543;stop-opacity:0" offset="0.2403"></stop>
	<stop style="stop-color:#DD5543;stop-opacity:0.6" offset="1"></stop>
</linearGradient>
<path d="M530.49,602.71l-10.7-2.07c-26.84-5.18-44.39-31.14-39.21-57.97l1.74-9.02c3.05-15.77,18.3-26.09,34.07-23.04
	l11.2,2.16c29.19,5.64,48.28,33.88,42.63,63.07l0,0C566.67,594.24,548.88,606.27,530.49,602.71z" class="st12"></path>
</svg>
