<svg xml:space="preserve" style="enable-background:new 0 0 1024 1024;" viewBox="0 0 1024 1024" y="0px" x="0px" xmlns:xlink="http://www.w3.org/1999/xlink" xmlns="http://www.w3.org/2000/svg" id="图层_1" version="1.1">
<style type="text/css">
	.st0{fill:#9BA9DE;}
	.st1{fill:#FF9F8E;}
	.st2{fill:#152140;}
	.st3{fill:#F5575D;}
	.st4{opacity:0.4;}
	.st5{fill:#FFFFFF;stroke:#0F0F0F;stroke-width:6;stroke-miterlimit:10;}
	.st6{fill:#FFFFFF;}
	.st7{fill:#DD5543;}
	.st8{fill:#FCFFFF;}
	.st9{fill:#005097;}
	.st10{fill:#1E66B1;}
	.st11{fill:#034481;}
	.st12{fill:url(#SVGID_1_);}
</style>
<g>
	<path d="M1024.5,512.5c0,159.14-72.65,301.43-186.54,395.29c-8.47,7.01-17.11,13.66-26.04,20.12
		c-84.21,60.81-187.63,96.59-299.43,96.59c-8.56,0-17.11-0.18-25.49-0.64c-9.19-0.46-18.3-1.09-27.31-2.09
		c-64-6.46-124.45-24.85-179.17-52.71c-24.31-12.38-47.52-26.67-69.37-42.7C83.43,833.32,0.5,682.65,0.5,512.5
		c0-282.77,229.23-512,512-512C795.26,0.5,1024.5,229.73,1024.5,512.5z" class="st0"></path>
</g>
<g>
	
		<ellipse ry="67.59" rx="41.44" cy="468.93" cx="309.93" class="st1" transform="matrix(0.9959 -0.0905 0.0905 0.9959 -41.1584 29.9665)"></ellipse>
</g>
<path d="M339.27,486.14c-1.93-11.5-6.9-23.1-16-30.73c-2.21-1.85-4.45-3.63-7.15-5.01c-2.61-1.38-6.04-2.06-8.96-0.88
	c-5.88,2.55-7.89,8.86-8.43,14.23c1.03-5.32,3.95-11.09,8.99-12.56c5.09-1.31,9.45,3.02,13.16,6.79
	c7.46,7.74,10.75,18.46,11.41,28.99c0.12,1.94,1.8,3.42,3.74,3.3s3.42-1.8,3.3-3.74C339.31,486.41,339.29,486.26,339.27,486.14z" class="st2"></path>
<g>
	
		<ellipse ry="37.62" rx="65.9" cy="475.2" cx="725.78" class="st1" transform="matrix(0.0905 -0.9959 0.9959 0.0905 186.8616 1155.0094)"></ellipse>
</g>
<path d="M705.53,491.75c1.93-11.5,6.9-23.1,16-30.73c2.21-1.85,4.45-3.63,7.15-5.01c2.61-1.38,6.04-2.06,8.96-0.88
	c5.88,2.55,7.89,8.86,8.43,14.23c-1.03-5.32-3.95-11.09-8.99-12.56c-5.09-1.31-9.45,3.02-13.16,6.79
	c-7.46,7.74-10.75,18.46-11.41,28.99c-0.12,1.94-1.8,3.42-3.74,3.3c-1.94-0.12-3.42-1.8-3.3-3.74
	C705.5,492.01,705.51,491.86,705.53,491.75z" class="st2"></path>
<g>
	<rect height="184.99" width="168.33" class="st1" y="689.06" x="444.77"></rect>
</g>
<g>
	<path d="M339.5,430.17c-6.18-23.79-16.18-58.09-31.93-98.53c-13.21-33.89-17.3-38.31-16.31-50.28
		c4.2-50.53,86.77-88.56,149.49-97.85c33.74-5,61.85-1.7,78.82,1.36c-0.38-5.79-2.1-19.18-12.23-30.58
		c-3.18-3.58-6.53-6.22-9.52-8.15c5.98-0.82,29.98-3.42,52.32,12.23c14.62,10.24,21.58,23.42,24.46,29.9
		c1.72-10.28,2.66-23.9,0-39.41c-0.89-5.19-2.08-9.95-3.4-14.27c4.73,2.82,12.7,8.47,19.03,18.35c9.94,15.51,9.31,31.25,8.83,36.69
		c5.56-6.34,17.05-17.72,35.33-25.14c16.53-6.71,31.18-7.15,39.41-6.79c-2.64,0.3-17.97,2.29-27.18,15.63
		c-4.54,6.57-5.75,13.22-6.11,16.99c8.05-1.51,19.66-2.69,33.3-0.68c21.52,3.17,36.92,12.62,44.85,18.35
		c-10.19,2.04-20.38,4.08-30.58,6.12c8.38,2.03,21.05,5.99,34.65,14.27c5.46,3.32,43.44,26.42,40.09,49.6
		c-1.21,8.35-7.04,11.65-13.59,19.03c-29.49,33.22-6.65,74-29.9,118.23c-5.23,9.96-15.02,24.3-34.65,38.05
		C569.62,445.57,454.56,437.87,339.5,430.17z" class="st2"></path>
</g>
<g>
	<path d="M613.1,689.06v51.89c-47.16,21.21-114.34,25.67-168.33,3.55v-55.44H613.1z" class="st3"></path>
</g>
<g>
	<path d="M500.88,233.4c-71.35,11.69-128.14,65.73-147.44,135.4c-18.26,65.9-28.19,146.32-9.84,231.65
		c14.32,66.58,36.17,91.11,47.56,101.93c62.15,58.95,175.84,53.42,235.11,14.95c83.05-53.91,112.18-206.85,50.35-381.19
		c-24.41-68.83-92.77-112.74-165.29-104.21c-0.64,0.08-1.28,0.15-1.93,0.24C506.52,232.53,503.68,232.94,500.88,233.4z" class="st1"></path>
</g>
<g class="st4">
	
		<ellipse ry="63.98" rx="85.79" cy="397.85" cx="587.8" class="st5" transform="matrix(0.2249 -0.9744 0.9744 0.2249 67.9367 881.11)"></ellipse>
</g>
<g class="st4">
	
		<ellipse ry="68.56" rx="90.86" cy="401.51" cx="434.33" class="st5" transform="matrix(0.4312 -0.9023 0.9023 0.4312 -115.2176 620.2507)"></ellipse>
</g>
<g>
	<path d="M542.19,634.65c-0.61,9.52-1.84,18.55-3.69,26.66c-5.28,23.78-15.18,40.06-25.5,39.44
		c-10.08-0.68-17.82-17.14-20.34-40.49c-1.04-8.72-1.29-18.43-0.67-28.63c2.21-37.29,15.24-66.91,29.12-66.05
		C535,566.39,544.4,597.36,542.19,634.65z" class="st6"></path>
</g>
<g>
	<circle r="37.67" cy="418.35" cx="434.33" class="st2"></circle>
</g>
<g>
	<circle r="16.48" cy="431.43" cx="434.33" class="st6"></circle>
</g>
<g>
	<circle r="10.26" cy="403.51" cx="451.65" class="st6"></circle>
</g>
<g>
	<g>
		<circle r="37.67" cy="418.35" cx="587.8" class="st2"></circle>
	</g>
	<g>
		<circle r="16.48" cy="431.43" cx="587.8" class="st6"></circle>
	</g>
	<g>
		<circle r="10.26" cy="403.51" cx="605.13" class="st6"></circle>
	</g>
</g>
<g>
	<path d="M538.5,661.31c-5.28,23.78-15.18,40.06-25.5,39.44c-10.08-0.68-17.82-17.14-20.34-40.49
		c6.7-2.64,14.01-4.12,21.69-4.12C522.96,656.15,531.13,658,538.5,661.31z" class="st7"></path>
</g>
<g>
	<path d="M701.57,368.5c-16.82-10.93-35.76-25.51-54.36-44.85c-7.08-7.36-13.39-14.66-19.03-21.74
		c0.68,8.82,2.35,19.53,6.12,31.26c1.86,5.78,3.96,11,6.11,15.63c-5.98-5.69-17.3-18.04-23.1-37.37c-8.38-27.9,0.44-51.39,3.4-58.44
		c-5.4,9.89-14.85,24.22-30.58,37.37c-24.31,20.33-49.96,26.44-62.51,28.54c6.88-8.15,14.77-16.64,23.78-25.14
		c21.79-20.55,43.73-35.16,62.51-45.53c-28.82,7.97-60.66,18.51-94.45,32.62c-25.69,10.72-49.03,22.04-69.99,33.3
		c3.7-6.74,9.68-15.75,19.03-24.46c13.98-13.02,28.67-18.98,37.37-21.74c-24.61,4.32-58.68,13.32-95.13,33.3
		c-22.11,12.11-39.9,25.42-53.68,37.37c-8.15-17.67-16.31-35.33-24.46-53c25.77-9.33,61.29-21.77,103.96-35.33
		c152.87-48.6,177.36-41.78,190.26-36.01C686.37,240.86,698.58,334.04,701.57,368.5z" class="st2"></path>
</g>
<g>
	<path d="M451.6,315.79c0.81-2.18-8.27-9.24-19-11.52c-14.75-3.14-29.57,3.42-29.28,5.92c0.14,1.2,3.72,1.02,21.18,3.11
		C445.52,315.82,451.02,317.36,451.6,315.79z" class="st2"></path>
</g>
<g>
	<path d="M564.89,316.06c-1.26-1.95,6.1-10.8,16.09-15.33c13.73-6.23,29.62-3,29.87-0.5c0.12,1.2-3.42,1.8-20.02,7.58
		C570.84,314.78,565.8,317.47,564.89,316.06z" class="st2"></path>
</g>
<g>
	<path d="M657.85,830.24c-6.57,21.01-29.18,29.54-35.76,50.55c-60.41,36.42-129.97,36.65-174.39,1.51
		c-25.99-20.57-37-48.28-41.8-64.99c2.4-2.27,4.75-4.53,7.15-6.8c0.71-0.67,1.42-1.33,2.13-2c0.93-0.89,1.87-1.78,2.8-2.67
		c9.06-8.62,18.17-17.23,27.23-25.85c15.37,19.94,40.6,46.73,78.62,66.54c11.64,6.04,22.88,10.62,33.27,14.08
		c4.57-0.75,28.74-5.2,44.33-27.72c11.86-17.15,11.86-34.82,11.59-40.82c5.06,4.53,14.66,12.61,23.99,20.39
		C645.28,819.44,653.36,826.24,657.85,830.24z" class="st8"></path>
</g>
<g>
	<path d="M641.77,817.8c-5.24,16.75-10.44,33.49-15.68,50.24c-23.72,16.44-57.34,26.7-94.66,26.7
		c-43.22,0-81.51-13.77-105.23-35c-11.19-15.46-17.1-31.36-20.3-42.42c2.36-2.22,4.71-4.49,7.06-6.75c0.05,0,0.05,0,0.09-0.04
		c0.71-0.67,1.42-1.33,2.13-2c0.93-0.89,1.87-1.78,2.8-2.67c5.29,7.46,14.97,20.97,26.79,31.36c7.64,6.84,16.92,13.46,27.85,19.41
		c6.71,3.55,24.12,12.93,46.06,17.37c14.12,3.02,30.03,3.91,46.24,0c7.02-1.64,14.22-4.26,21.23-8
		c11.19-6.04,19.99-13.86,26.92-21.85c10.39-12.13,16.3-24.79,19.41-32.6c0.93,0.18,1.96,0.44,2.98,0.62
		C637.55,814.02,639.68,815.93,641.77,817.8z" class="st8"></path>
</g>
<g>
	<path d="M417.98,805.85c0.17,0.25,0.55,0.79,1.02,1.47c11.03,15.66,20.72,25.02,22.88,27.19
		c0.98,0.98,1.95,1.87,2.89,2.71c7.64,6.84,16.92,13.46,27.85,19.41c6.71,3.55,24.12,12.93,46.06,17.37
		c14.12,3.02,30.03,3.91,46.24,0c7.02-1.64,14.22-4.26,21.23-8c11.19-6.04,19.99-13.86,26.92-21.85
		c10.39-12.13,16.3-24.79,19.41-32.6c0.98,0.18,2,0.44,3.07,0.62c0.49,0.09,0.98,0.22,1.47,0.31c7.24,1.55,15.28,3.55,23.99,6.22
		c30.78,9.24,69.38,26.07,105.23,57.39c23.54,20.66,38.29,40.87,44.33,49.71c0.44,0.76,0.98,1.38,1.33,2.09
		c-84.17,60.85-187.63,96.61-299.43,96.61c-8.53,0-17.1-0.18-25.45-0.62c-9.19-0.49-18.3-1.11-27.32-2.13
		c-64.01-6.44-124.46-24.83-179.19-52.68c-24.3-12.39-47.53-26.7-69.34-42.69c9.91-16.39,22.65-31.63,38.96-44.24
		c9.64-7.51,18.39-12.48,29.58-18.79c29.72-16.88,69.96-35.62,121.53-49.71c0.67-0.18,1.38-0.36,2.04-0.53
		c3.2-0.84,6.44-1.73,9.68-2.53c0.02,0,0.03,0,0.04,0c0.02-0.01,0.03-0.02,0.05-0.04C414.69,808.96,416.34,807.4,417.98,805.85z" class="st9"></path>
</g>
<g>
	<path d="M747.63,967.47c2.31-25.54,1.11-53.97-6.57-84c-2.98-11.68-6.89-23.19-11.59-34.38l-0.71-0.4l-5.91-3.51
		c5.82,12.75,10.44,25.9,13.9,39.36c7.82,30.6,8.8,59.48,6.13,85.33v0.04L747.63,967.47z" class="st10"></path>
</g>
<g>
	<path d="M360.25,1001.45c7.42-33.18,10.08-73.87-1.2-117.98c-4.35-17.01-10.57-33.58-18.57-49.39l-4.13,1.69
		c7.91,15.64,14.08,31.98,18.39,48.77c11.02,43.18,8.48,83.02,1.2,115.58v0.04L360.25,1001.45z" class="st10"></path>
</g>
<path d="M661,818.69c-3.16,19.06-15.81,36.2-34.92,49.35c-23.72,16.44-57.34,26.7-94.66,26.7
	c-43.22,0-81.51-13.77-105.23-35c-10.79-14.88-19.41-35.27-22.92-46.64c3.2-0.84,6.44-1.73,9.68-2.53c0.05,0,0.05,0,0.09-0.04
	c0.89-0.27,1.51-1.11,2.13-2c0.93-0.89,1.87-1.78,2.8-2.67c0.13,0.18,0.49,0.67,1.02,1.47c3.33,4.49,13.64,18.21,22.88,27.19
	c0.98,0.98,1.95,1.87,2.89,2.71c7.64,6.84,16.92,13.46,27.85,19.41c6.71,3.55,24.12,12.93,46.06,17.37
	c14.12,3.02,30.03,3.91,46.24,0c7.02-1.64,14.22-4.26,21.23-8c11.19-6.04,19.99-13.86,26.92-21.85
	c10.39-12.13,17.28-27.58,20.39-35.4c0.93,0.18,1.78,1.78,2.8,1.95C643.85,812.29,651.72,815.84,661,818.69z" class="st11"></path>
<linearGradient gradientTransform="matrix(1 0 0 1 0 -913.9289)" y2="1394.4164" x2="465.2427" y1="1444.765" x1="552.4491" gradientUnits="userSpaceOnUse" id="SVGID_1_">
	<stop style="stop-color:#DD5543;stop-opacity:0" offset="0.2403"></stop>
	<stop style="stop-color:#DD5543;stop-opacity:0.6" offset="1"></stop>
</linearGradient>
<path d="M514.38,551.07l-10.7-2.07c-26.84-5.18-44.39-31.14-39.21-57.97l1.74-9.02c3.05-15.77,18.3-26.09,34.07-23.04
	l11.2,2.16c29.19,5.64,48.28,33.88,42.63,63.07v0C550.56,542.6,532.77,554.62,514.38,551.07z" class="st12"></path>
</svg>
