<svg t="1644588383511" class="icon" viewBox="0 0 1306 1024" version="1.1" xmlns="http://www.w3.org/2000/svg" p-id="3475" width="32" height="32"><path d="M709.107981 748.689828c-54.004382-35.735837-119.546792-31.729577-146.468857 8.813771-8.493271 12.820031-12.018779 27.563067-11.377778 43.107356 46.472613 35.415336 101.278247 63.138654 162.493897 78.522691 14.422535 3.685759 29.325822 6.249765 44.229108 7.852269l0.16025-0.16025c27.082316-40.543349 4.967762-102.4-49.03662-138.135837z" fill="#FF9088" opacity=".05" p-id="3476"></path><path d="M1.282003 799.489202a651.898592 224.350548 0 1 0 1303.797183 0 651.898592 224.350548 0 1 0-1303.797183 0Z" fill="#51150B" opacity=".11" p-id="3477"></path><path d="M657.988106 863.108607c-83.169953 161.852895-188.45446 137.975587-303.033489 79.003443s-195.184977-130.604069-112.015024-292.456964c83.169953-161.852895 298.706729-352.39061 413.285759-293.418466 114.57903 58.972144 84.932707 345.019092 1.762754 506.871987z" fill="#F2D1C0" p-id="3478"></path><path d="M723.049765 655.103599v-0.3205c0.641002-3.525509 1.121753-7.211268 1.602504-10.736777 0.480751-3.525509 0.961502-7.051017 1.442254-10.416275 0-0.480751 0.16025-0.801252 0.16025-1.282003 0.480751-3.365258 0.801252-6.730516 1.282003-10.256025 0.320501-3.365258 0.641002-6.730516 1.121753-9.935524 0-0.641002 0.16025-1.282003 0.16025-1.923005 0.320501-3.205008 0.641002-6.570266 0.801252-9.775274v-0.16025c0.320501-3.205008 0.480751-6.249765 0.641002-9.294523 0-0.801252 0.16025-1.762754 0.16025-2.564006l0.480751-9.134273v-1.442253c0.16025-2.884507 0.320501-7.531768 0.320501-10.416276v-0.480751c0-2.884507 0.16025-5.608764 0.160251-8.493271V545.973083c0-2.724257 0-5.288263-0.160251-7.852269 0-1.121753 0-2.403756-0.16025-3.525509 0-1.762754-0.16025-3.685759-0.160251-5.448513 0-1.121753-0.16025-2.403756-0.16025-3.525509-0.16025-2.564006-0.320501-4.967762-0.480751-7.371518-0.16025-1.282003-0.16025-2.564006-0.320501-3.846009-0.16025-1.602504-0.320501-3.365258-0.320501-4.967762-0.16025-1.602504-0.320501-3.365258-0.480751-4.967762-0.16025-1.923005-0.320501-3.685759-0.641001-5.608764l-0.480752-3.846009c-0.16025-1.602504-0.320501-3.044757-0.641001-4.647262-0.320501-1.923005-0.480751-3.685759-0.801252-5.608764-0.16025-1.442254-0.480751-3.044757-0.641002-4.48701-0.16025-1.282003-0.480751-2.564006-0.641001-3.84601-0.320501-1.602504-0.480751-3.044757-0.801252-4.647261l-0.961503-5.288263c-0.320501-1.282003-0.480751-2.724257-0.801252-4.00626s-0.480751-2.564006-0.801251-3.685759c-0.480751-1.762754-0.801252-3.685759-1.282004-5.448513-0.320501-1.442254-0.641002-2.724257-1.121752-4.16651-0.320501-1.282003-0.641002-2.403756-0.961503-3.685759-0.320501-1.121753-0.641002-2.243505-0.961502-3.525509 0-0.16025 0-0.16025-0.16025-0.320501-4.807512-15.864789-10.897027-30.447574-18.428795-42.947105-32.370579-22.435055-65.54241-40.062598-97.912989-53.042879-65.061659 3.205008-144.866354 52.401878-215.536777 119.066041 22.114554 56.888889 74.997183 120.187793 148.552113 170.666666 32.210329 22.114554 65.061659 39.581847 97.111737 52.401878 20.191549 8.01252 27.563067 32.69108 15.223787 50.639124-95.348983 138.135837-256.400626 198.229734-380.594679 134.450078-9.935524-5.128013-19.230047-10.897027-28.204069-17.146792 26.441315 34.934585 68.587167 62.016901 116.662285 86.695462 114.57903 58.972144 219.703286 82.689202 303.03349-79.003443 30.768075-58.972144 53.844131-133.809077 65.70266-208.325509z" fill="#E3B18E" p-id="3479"></path><path d="M1111.817214 565.042879c-69.869171 135.892332-282.040689 166.019405-507.673239 49.998123-225.632551-116.021283-400.145227-345.019092-330.276056-480.751174 69.869171-135.732081 352.07011-183.166197 577.54241-67.305164 120.668545 62.016901 143.584351 129.001565 186.851956 228.677308 37.658842 86.695462 105.925509 206.242254 73.554929 269.380907z" fill="#AA6D4E" p-id="3480"></path><path d="M1111.817214 565.042879c-69.869171 135.892332-282.040689 166.019405-507.673239 49.998123-225.632551-116.021283-400.145227-345.019092-330.276056-480.751174 69.869171-135.732081 352.07011-183.166197 577.54241-67.305164 120.668545 62.016901 143.584351 129.001565 186.851956 228.677308 37.658842 86.695462 105.925509 206.242254 73.554929 269.380907z" fill="#AA5C3A" p-id="3481"></path><path d="M1038.262285 295.661972c-43.107355-99.355243-66.023161-166.179656-185.569953-227.876057 68.907668 76.920188 93.906729 167.94241 47.594366 258.00313C828.013772 466.328638 589.080438 487.48169 418.253521 399.664476c-62.978404-32.370579-113.457277-77.88169-148.712363-129.642567 39.101095 122.7518 173.871674 262.650391 334.442567 345.179343 225.632551 116.021283 437.804069 85.733959 507.673239-49.998122 32.530829-63.298905-35.735837-182.845696-73.394679-269.541158z" fill="#9F5233" p-id="3482"></path><path d="M1038.262285 295.661972c-33.812833-78.041941-55.286385-135.892332-120.828795-187.172457 56.408138 89.099218 71.311424 182.364945 37.658842 255.118623-65.38216 141.180595-299.507981 172.910172-549.017841 57.52989-28.043818-12.980282-54.805634-27.082316-80.125195-42.145853 62.978404 89.900469 164.096401 177.557433 278.194679 236.209077 225.632551 116.021283 437.804069 85.733959 507.673239-49.998122 32.370579-63.298905-35.896088-182.845696-73.554929-269.541158z" fill="#9F5233" p-id="3483"></path><path d="M1038.262285 295.661972l-4.326761-10.095775c7.852269 50.959624 1.442254 100.797496-21.473552 145.347105C934.259781 582.830673 693.884194 615.041002 475.462911 502.705477c-38.460094-19.871049-73.71518-42.786854-105.284507-67.946166 61.53615 69.388419 143.584351 133.969327 233.965571 180.441941 225.632551 116.021283 437.804069 85.733959 507.673239-49.998122 32.370579-63.298905-35.896088-182.845696-73.554929-269.541158z" fill="#93472C" p-id="3484"></path><path d="M710.229734 99.996244c0 27.883568-37.01784 29.486072-95.989984 29.486072s-117.463537-1.602504-117.463537-29.486072 47.754617-50.639124 106.72676-50.639123 106.726761 22.595305 106.726761 50.639123z" fill="#F4E0D5" opacity=".6" p-id="3485"></path><path d="M784.105164 107.688263c-4.16651 8.17277-20.992801 15.704538-33.652582 9.294523-12.659781-6.570266-20.51205-26.761815-16.185289-34.934586 4.326761-8.17277 21.954304-7.371518 34.614084-0.801252 12.499531 6.410016 19.390297 18.268545 15.223787 26.441315z" fill="#F4E0D5" opacity=".5" p-id="3486"></path><path d="M274.801754 763.561316a37.819092 85.89421 27.213 1 0 78.558796-152.773612 37.819092 85.89421 27.213 1 0-78.558796 152.773612Z" fill="#F4E0D5" p-id="3487"></path><path d="M880.847491 971.422881a233.332582 187.018617 1.488 1 0 9.712842-373.911102 233.332582 187.018617 1.488 1 0-9.712842 373.911102Z" fill="#AA5C3A" p-id="3488"></path><path d="M906.376213 598.535211c45.511111 23.717058 75.157433 65.221909 73.87543 111.694523-1.923005 70.990923-75.157433 126.758059-163.7759 124.354304-77.400939-2.083255-140.699844-47.594366-154.321126-106.24601-6.089515 15.864789-9.454773 32.69108-9.935525 50.158373-2.724257 103.201252 99.515493 189.736463 228.356808 192.941471 128.841315 3.365258 235.407825-77.72144 238.132081-180.922692 2.724257-98.874491-91.022222-182.364945-212.331768-191.979969z" fill="#9F5233" p-id="3489"></path><path d="M941.631299 603.502973c65.862911 26.441315 110.57277 81.7277 108.970266 144.385603-2.243505 86.05446-91.022222 153.519875-198.550235 150.795618-107.367762-2.724257-192.62097-74.836933-190.377465-160.891393 0.16025-3.205008 0.320501-6.249765 0.641002-9.294522-5.929264 15.864789-9.454773 32.69108-9.935524 50.158372-2.724257 103.201252 99.515493 189.736463 228.356807 192.941471 128.841315 3.365258 235.407825-77.72144 238.132082-180.922692 2.403756-89.259468-73.55493-165.859155-177.236933-187.172457z" fill="#93472C" p-id="3490"></path><path d="M753.5963 667.14575a17.787793 32.370579 69.52 1 0 60.649153-22.651663 17.787793 32.370579 69.52 1 0-60.649153 22.651663Z" fill="#F4E0D5" opacity=".6" p-id="3491"></path></svg>