<svg t="1642313282308" class="icon" viewBox="0 0 1024 1024" version="1.1" xmlns="http://www.w3.org/2000/svg" p-id="1304" width="48" height="48"><path d="M710.302415 494.063489c9.648754 9.864672 15.638165 23.607674 15.638165 38.803771 0 30.010501-23.352871 54.351885-52.143591 54.351885-28.789697 0-52.143591-24.341385-52.143591-54.351885 0-30.009478 23.352871-54.350862 52.143591-54.350862C688.010713 478.516398 700.895161 484.448504 710.302415 494.063489L710.302415 494.063489z" fill="#1296DB" p-id="1305"></path><path d="M399.60107 494.063489c9.650801 9.864672 15.638165 23.607674 15.638165 38.803771 0 30.010501-23.352871 54.351885-52.144614 54.351885-28.79072 0-52.143591-24.341385-52.143591-54.351885 0-30.009478 23.352871-54.350862 52.143591-54.350862C377.306298 478.516398 390.193817 484.448504 399.60107 494.063489L399.60107 494.063489z" fill="#1296DB" p-id="1306"></path><path d="M908.314211 527.788591c-3.071965-77.314877-28.625968-150.971433-74.226538-213.632565-6.354731-8.732895-18.594497-10.666944-27.339672-4.319375-8.744151 6.346545-10.679223 18.569938-4.326539 27.303856 42.915415 58.973136 66.095347 128.774899 67.032696 201.859427l0.143263 11.259438 9.82374 5.523807c25.399483 14.282285 41.177841 41.211611 41.177841 70.2776 0 21.366633-8.287757 41.497113-23.337521 56.681954-15.037485 15.173584-35.084053 23.659863-56.444547 23.895223l-11.264555 0.12382-5.551436 9.790994c-30.195719 53.256948-73.994248 97.966219-126.660748 129.298831-54.205553 32.249495-116.400057 49.295729-179.860391 49.295729-128.533398 0-246.849084-69.977771-308.772412-182.623317l-6.108115-11.112082-12.649088 1.038656c-2.249227 0.184195-4.500501 0.277316-6.689353 0.277316-44.4954 0-80.693834-36.152385-80.693834-80.589456 0-33.216519 19.964704-62.6202 50.861388-74.907037l11.827373-4.702092 0.490164-12.70537c3.505847-90.976014 41.651632-175.960571 107.411335-239.299131 65.931618-63.504336 152.699798-98.476849 244.324588-98.476849 13.066597 0 26.233478 0.722454 39.134299 2.146896 10.745738 1.186012 20.415982-6.55223 21.603017-17.282618 1.188058-10.729365-6.558369-20.388353-17.303085-21.575388-14.323217-1.582031-28.937053-2.38328-43.435255-2.38328-101.812827 0-198.23283 38.863123-271.497461 109.431342-70.160943 67.579141-112.033609 157.351748-118.706589 253.905804-17.012466 8.968256-31.606859 21.893636-42.672892 37.892005-13.856589 20.033265-21.181415 43.531446-21.181415 67.956741 0 65.023946 52.185546 118.101815 116.927059 119.650077C250.600525 860.803127 378.676505 934.240697 517.479805 934.240697c70.50989 0 139.632177-18.950607 199.894679-54.80214 55.420217-32.970926 102.002139-79.282694 135.270846-134.366244 27.412326-2.879584 52.79953-15.013949 72.436776-34.827203 22.351054-22.552645 34.660404-52.449559 34.660404-84.183308C959.743534 586.722842 940.2956 550.031175 908.314211 527.788591L908.314211 527.788591z" fill="#1296DB" p-id="1307"></path><path d="M286.46843 645.890406c-9.66615 4.833075-13.577227 16.576537-8.736988 26.229384 21.402449 42.685171 54.119595 78.724992 94.616938 104.226806 41.641399 26.222221 89.787956 40.082904 139.236158 40.082904 46.912449 0 92.933599-12.562107 133.085064-36.325323 38.963407-23.061228 71.445192-55.997362 93.934392-95.249341 2.388397-4.168949 4.689812-8.454556 6.836709-12.737092 4.839215-9.651824 0.926092-21.396309-8.739035-26.230408-9.66615-4.830005-21.423939-0.926092-26.264177 8.727779-1.824555 3.637854-3.777023 7.2798-5.809309 10.82351-19.130709 33.393551-46.766117 61.412698-79.916121 81.033571-34.113959 20.190855-73.233931 30.863938-113.128547 30.863938-42.049698 0-82.977853-11.777231-118.359688-34.0587-34.45472-21.697161-62.288648-52.356438-80.493266-88.662319C307.892369 644.963291 296.131511 641.056308 286.46843 645.890406L286.46843 645.890406z" fill="#1296DB" p-id="1308"></path><path d="M643.213437 298.205752c-21.502733-0.001023-43.016723-8.113795-59.482743-24.364921-7.687076-7.589862-20.082384-7.516184-27.677363 0.163729-7.599072 7.677866-7.525394 20.052708 0.162706 27.64257 24.083511 23.772426 55.54506 35.635615 86.995353 35.635615 31.939433 0 63.86761-12.236696 88.037079-36.661991 23.240307-23.483854 35.932374-54.600549 35.737946-87.618547-0.193405-33.016974-13.251815-63.98222-36.765345-87.191828-22.732747-22.440082-52.848649-35.108612-84.798315-35.673477-10.778484-0.157589-19.724227 8.404414-19.914562 19.198248-0.192382 10.793834 8.41567 19.697621 19.222807 19.890003 21.840424 0.385786 42.430368 9.048073 57.974389 24.391527 16.078187 15.868409 25.004487 37.040614 25.137517 59.615773 0.134053 22.576181-8.544607 43.850717-24.433482 59.907415C686.879959 289.841248 665.055908 298.206776 643.213437 298.205752L643.213437 298.205752z" fill="#1296DB" p-id="1309"></path><path d="M373.7411 535.737634M334.596568 535.737634" fill="#1296DB" p-id="1310"></path><path d="M647.694495 535.737634M608.550986 535.737634" fill="#1296DB" p-id="1311"></path></svg>