<svg t="1641365543829" class="icon" viewBox="0 0 1024 1024" version="1.1" xmlns="http://www.w3.org/2000/svg" p-id="2282" width="48" height="48"><path d="M190.442642 542.108922a289.816918 289.816918 0 1 1 289.668598 289.668598 289.965238 289.965238 0 0 1-289.668598-289.668598z" fill="#FF8E68" p-id="2283"></path><path d="M271.276941 542.108922a216.10197 216.10197 0 1 1 216.10197 215.95365 216.10197 216.10197 0 0 1-216.10197-215.95365z" fill="#FFFFFF" p-id="2284"></path><path d="M206.164542 330.159907c-34.855156-129.038239 88.10197-194.298957 180.505215-114.206257zM765.330243 330.159907c34.706837-129.038239-88.10197-194.298957-180.653534-114.206257z" fill="#FF8E68" p-id="2285"></path><path d="M272.760139 862.183082a13.645423 13.645423 0 0 1-7.119351-1.631518 14.831981 14.831981 0 0 1-6.822712-20.023175l31.740441-63.035921-1.334879-1.334878A307.466976 307.466976 0 1 1 726.767092 728.546929l-43.606026 44.495945 5.042874 4.301274 31.59212 63.035922a14.831981 14.831981 0 0 1-6.971031 19.874855 13.645423 13.645423 0 0 1-7.119351 1.631518 14.831981 14.831981 0 0 1-12.903824-8.30591l-31.592121-63.184241-4.597914 2.966396A307.911935 307.911935 0 0 1 351.517961 815.75898l-36.486675-20.764774-29.663963 59.327926a14.831981 14.831981 0 0 1-12.607184 7.86095zM484.709154 815.75898A277.654693 277.654693 0 1 0 207.64774 538.845886 277.654693 277.654693 0 0 0 484.709154 815.75898z m0-39.89803a237.311703 237.311703 0 1 1 237.311703-237.311703 237.311703 237.311703 0 0 1-237.311703 237.904982z m0-29.663963a207.64774 207.64774 0 1 0-207.64774-207.64774 207.64774 207.64774 0 0 0 207.64774 207.94438z m177.983778-6.377752a14.831981 14.831981 0 0 1-12.755504-5.636153 14.831981 14.831981 0 0 1 2.669756-20.616454 194.892236 194.892236 0 0 0 47.165701-56.509849 14.831981 14.831981 0 0 1 25.955968 14.831981 226.039397 226.039397 0 0 1-54.730012 64.964079 13.942063 13.942063 0 0 1-8.454229 3.263036z m-176.05562-17.798378a19.874855 19.874855 0 1 1 19.874855-19.874855 19.726535 19.726535 0 0 1-19.874855 19.874855zM396.755504 697.103129a19.874855 19.874855 0 1 1 19.874855-19.874856A19.874855 19.874855 0 0 1 396.755504 697.103129z m173.682503 0a19.874855 19.874855 0 1 1 19.874855-19.874856A19.874855 19.874855 0 0 1 570.438007 697.103129zM339.652375 637.775203a19.874855 19.874855 0 1 1 19.874856-19.874855A19.874855 19.874855 0 0 1 339.652375 637.775203z m290.261878 0a19.874855 19.874855 0 1 1 19.874855-19.874855A19.874855 19.874855 0 0 1 629.914253 637.775203z m-58.586327-12.162225A14.831981 14.831981 0 0 1 563.615295 622.943221l-92.254924-64.370799a14.831981 14.831981 0 0 1-6.377752-12.310545V359.82387a14.831981 14.831981 0 1 1 29.663963 0v179.170336l86.025492 59.327926a14.831981 14.831981 0 0 1 3.707996 20.913094 15.87022 15.87022 0 0 1-13.052144 6.822711z m78.016222-70.451912a19.874855 19.874855 0 1 1 19.874855-19.726535 19.874855 19.874855 0 0 1-19.874855 20.171494z m-335.202781-2.373117A19.874855 19.874855 0 1 1 334.016222 533.951333a19.726535 19.726535 0 0 1-19.874855 19.281575zM337.279258 474.623407a19.874855 19.874855 0 1 1 19.874856-19.874855A19.874855 19.874855 0 0 1 337.279258 474.623407z m292.634995-1.334879a19.874855 19.874855 0 1 1 19.874855-19.726535 19.726535 19.726535 0 0 1-19.874855 19.429896z m-363.828506-53.395133h-1.334878l-4.449594-1.483198h-1.038239a14.831981 14.831981 0 0 1-5.487833-20.319815 228.412514 228.412514 0 0 1 54.730011-65.853997 14.831981 14.831981 0 1 1 18.539977 23.73117 195.633835 195.633835 0 0 0-47.314021 56.509849 14.831981 14.831981 0 0 1-12.013905 7.415991z m124.588645-3.559675a19.874855 19.874855 0 1 1 19.874855-19.874856 19.874855 19.874855 0 0 1-19.874855 19.578216z m177.983777-1.186559a19.874855 19.874855 0 1 1 19.874855-20.023175A19.874855 19.874855 0 0 1 568.06489 415.295481zM756.431054 351.517961a14.831981 14.831981 0 0 1-9.640787-4.004635 602.920046 602.920046 0 0 0-174.869062-113.909618 14.831981 14.831981 0 0 1-6.081112-22.989571A121.770568 121.770568 0 0 1 682.271147 163.893395l33.816918 10.530707 4.301275-12.013905a19.578216 19.578216 0 0 1 13.645422-6.822711 20.023175 20.023175 0 0 1 21.061414 18.688296 21.358053 21.358053 0 0 1-2.669757 11.420626l-7.86095 7.119351 23.286211 25.955968c20.319815 31.74044 25.214368 75.198146 2.818077 124.588644a14.831981 14.831981 0 0 1-10.975667 8.454229h-2.818076z m-548.783314 0a14.831981 14.831981 0 0 1-10.679026-8.45423c-22.396292-49.390498-17.650058-92.848204 2.669756-124.588644L222.479722 192.815759l-6.971031-6.526072A19.874855 19.874855 0 0 1 247.545771 163.151796l4.152954 11.717265 9.344149-4.152954A122.808806 122.808806 0 0 1 400.463499 210.614137a14.831981 14.831981 0 0 1-5.932792 22.989571 600.991889 600.991889 0 0 0-174.869062 113.909618 14.831981 14.831981 0 0 1-12.013905 3.707995z m8.899189-40.04635l4.449595-3.856316a622.943221 622.943221 0 0 1 137.640788-88.991888l5.339513-2.373117-24.769409-14.831982a95.8146 95.8146 0 0 0-82.762457 5.191194 85.728853 85.728853 0 0 0-40.936268 103.82387z m533.951333 0l0.889919-2.818077a85.877173 85.877173 0 0 0-40.787949-103.82387 96.11124 96.11124 0 0 0-82.910777-5.191194l-24.769409 14.831982 5.487833 2.373117a627.096176 627.096176 0 0 1 137.640788 88.991889z" fill="#333333" p-id="2286"></path></svg>