<svg t="1641979910521" class="icon" viewBox="0 0 1024 1024" version="1.1" xmlns="http://www.w3.org/2000/svg" p-id="5976" width="48" height="48"><path d="M512 64C265 64 64 265 64 512s201 448 448 448 448-201 448-448S759 64 512 64z m0 814.5c-202.1 0-366.5-164.4-366.5-366.5 0-43.8 8.1-85.7 22.3-124.7L277 431c1.1 23.2 0.8 46.6-1.4 70.1l-7.7 3.1 35.3 47.9c12.8-8.4 26.5-18.3 41.1-29.9-3.1 23.4-7.2 47.1-12.3 71-8.1 5.1-16.4 10.2-24.9 15.4l55.3 50.3c42.3-42.2 77.1-81.9 104.5-119.1l-25.8-23.3c-18.2 14.1-36.5 27.5-54.9 40.3 7.9-23 15-47.8 21.9-73.4l61.8 24.7 54.9 134.8-43.2 22.3 29.2 31.4 164.8-90.3 21.2 52.1 61.9-32-1.3-3.2 90.1 36.1C790.7 788.1 661.8 878.5 512 878.5zM322.7 478.2c3-8.2 5.5-16.9 7.9-25.8l20.4 8.2v0.3c-8.5 5.9-18 11.7-28.3 17.3z m100.2-54.6c2.3-10.6 4.5-21.5 6.6-32.6l17.2 42.2-23.8-9.6z m206.8 82.7L589.2 490l33.5-13.6 11.4 28-4.4 1.9z m17.8 72.9l-62.2 32.2-16.6-40.7 28.5-11.6 50.3 20.1zM540.8 470.7l-15.2-6.1-5.3-13 79.2-32.3 9.6 23.5-68.3 27.9z m220.5 88.2l1.3-0.7 8.4-31.4-42.3-8.1-6.6 17.5-58.2-143 24-9.8 12.1-28.7-58.7-21-16.8 34.3-168.7 68.7-8.6-3.4 57.2-32.2-4.1-9.9 76.5-31.1 5 12.2 57.3-35.5-28.6-70.2 13.9-21.5-76-20.8-10 32.6-79.7 32.4-5.2-12.7-63.3 17.4 38.7 95.1-74.6-7.1c0 4.6-0.2 9.3-0.3 14l-12-4.8c2-16.8 3.5-34.1 4-52.8l-80.4 7.4c1.2 5.3 2 10.7 3 16l-75.3-30.1c63.1-111 182.2-186.2 318.7-186.2 202.1 0 366.5 164.4 366.5 366.5 0 30.8-4.2 60.6-11.4 89.2l-105.8-42.3zM472 321.4l76.5-31.1 14.7 36.2-76.5 31.1-14.7-36.2z m10.5 275.9c-43.4 41.9-88.4 78.8-135 110.4l55.3 50.3c43-48.1 78.2-93.9 105.5-137.4l-25.8-23.3z" p-id="5977" fill="#d81e06"></path></svg>