<svg t="1642314307338" class="icon" viewBox="0 0 1024 1024" version="1.1" xmlns="http://www.w3.org/2000/svg" p-id="2777" width="48" height="48"><path d="M512 100.473905a414.415238 414.415238 0 0 0 0 823.076571v73.630476a487.619048 487.619048 0 0 1 0-970.361904v73.654857z" fill="#504BFF" opacity=".1" p-id="2778"></path><path d="M512 999.619048a487.619048 487.619048 0 1 1 487.619048-487.619048 487.619048 487.619048 0 0 1-487.619048 487.619048z m0-73.142858a414.415238 414.415238 0 0 0 412.769524-377.904761H816.761905a36.571429 36.571429 0 0 1-36.571429-36.571429 268.190476 268.190476 0 0 0-536.380952 0 36.571429 36.571429 0 0 1-36.571429 36.571429H99.230476A414.415238 414.415238 0 0 0 512 926.47619z m0-828.95238A414.390857 414.390857 0 0 0 99.230476 475.428571h73.508572a341.211429 341.211429 0 0 1 678.521904 0h73.508572A414.390857 414.390857 0 0 0 512 97.52381z" fill="#504BFF" p-id="2779"></path><path d="M512 621.714286a121.904762 121.904762 0 1 1 121.904762-121.904762 121.904762 121.904762 0 0 1-121.904762 121.904762z m0-170.666667a48.761905 48.761905 0 1 0 48.761905 48.761905 48.761905 48.761905 0 0 0-48.761905-48.761905z" fill="#F469FD" p-id="2780"></path></svg>