<svg t="1651572029162" class="icon" viewBox="0 0 1024 1024" version="1.1" xmlns="http://www.w3.org/2000/svg" p-id="4859" width="16" height="16"><path d="M629.6 843l41.9-219 135.8-135.8 15.8 15.8c16.2 16.2 42.6 16.2 58.8 0 16.2-16.2 16.2-42.6 0-58.8L578.8 142c-16.2-16.2-42.6-16.2-58.8 0-16.2 16.2-16.2 42.6 0 58.8l15.8 15.8L400 352.5l-219 41.9c-3.1 0.6-6 2.1-8.3 4.4l-21.6 21.6c-12.5 12.5-12.5 32.8 0 45.3l174.2 174.2L142 823.1c-16.2 16.2-16.2 42.6 0 58.8 16.2 16.2 42.6 16.2 58.8 0l183.3-183.3 174.2 174.2c12.5 12.5 32.8 12.5 45.3 0l21.6-21.6c2.3-2.2 3.8-5 4.4-8.2z" p-id="4860" fill="#cdcdcd"></path></svg>