<svg t="1646618032344" class="icon" viewBox="0 0 1024 1024" version="1.1" xmlns="http://www.w3.org/2000/svg" p-id="2616" width="24" height="24"><path d="M620.4 385.8H227.1c-19.9 0-36 16.1-36 36s16.1 36 36 36h393.3c19.9 0 36-16.1 36-36s-16.1-36-36-36zM458.8 538.4H227.1c-19.9 0-36 16.1-36 36s16.1 36 36 36h231.6c19.9 0 36-16.1 36-36s-16-36-35.9-36z" p-id="2617" fill="#ff8041"></path><path d="M890.6 121.1H481.8c-37.5 0-67.9 30.5-67.9 67.9v50H146.2c-43.6 0-79.1 35.5-79.1 79.1v385.6c0 43.6 35.5 79.1 79.1 79.1h43.1c-7.9 39.7-15.2 76.8-15.3 77.3-2.8 14.3 3.3 28.9 15.5 37 6 4 12.9 6 19.8 6 7.1 0 14.1-2.1 20.3-6.2l167.5-114h301.3c43.6 0 79.1-35.5 79.1-79.1V542.5h113.1c37.5 0 67.9-30.5 67.9-67.9V189c0.1-37.4-30.4-67.9-67.9-67.9zM705.5 703.8c0 3.9-3.2 7.1-7.1 7.1H386c-7.2 0-14.3 2.2-20.3 6.2l-104 70.8c2.3-11.6 4.6-23.2 6.8-34 2.1-10.6-0.6-21.5-7.5-29.9s-17.1-13.2-27.8-13.2h-86.9c-3.9 0-7.1-3.2-7.1-7.1V318.2c0-3.9 3.2-7.1 7.1-7.1h552.1c3.9 0 7.1 3.2 7.1 7.1v385.6z m181.1-233.3H777.5V318.2c0-43.6-35.5-79.1-79.1-79.1H485.9v-46h400.7v277.4z" p-id="2618" fill="#ff8041"></path></svg>