<svg t="1644465536236" class="icon" viewBox="0 0 1024 1024" version="1.1" xmlns="http://www.w3.org/2000/svg" p-id="8569" width="24" height="24"><path d="M641.65 612.74h-259.3c-23.87 0-43.22 19.35-43.22 43.22v129.66c0 23.87 19.35 43.22 43.22 43.22h259.31c23.87 0 43.22-19.35 43.22-43.22V655.96c-0.01-23.87-19.36-43.22-43.23-43.22zM598.44 742.4H425.56v-43.22h172.87v43.22zM641.65 872.05h-259.3c-23.87 0-43.22 19.35-43.22 43.22 0 23.87 19.35 43.22 43.22 43.22h259.31c23.87 0 43.22-19.35 43.22-43.22-0.01-23.87-19.36-43.22-43.23-43.22zM816.01 321.13l-275.3-244.7A43.113 43.113 0 0 0 512 65.51c-10.26 0-20.53 3.64-28.71 10.92L208 321.13c-29.7 26.4-11.03 75.52 28.71 75.52h59.2c23.87 0 43.22 19.35 43.22 43.22v86.44c0 23.87 19.35 43.22 43.22 43.22h259.31c23.87 0 43.22-19.35 43.22-43.22v-86.44c0-23.87 19.35-43.22 43.22-43.22h59.2c39.73 0 58.41-49.12 28.71-75.52zM598.44 439.87v43.22H425.56v-43.22c0-55.57-35.14-103.09-84.36-121.49L512 166.55l170.8 151.82c-49.22 18.41-84.36 65.93-84.36 121.5z" fill="#2c2c2c" p-id="8570"></path></svg>