<svg xml:space="preserve" style="enable-background:new 0 0 1024 1024;" viewBox="0 0 1024 1024" y="0px" x="0px" xmlns:xlink="http://www.w3.org/1999/xlink" xmlns="http://www.w3.org/2000/svg" id="图层_1" version="1.1">
<style type="text/css">
	.st0{fill:#FFE32E;}
	.st1{fill:#FF9F8E;}
	.st2{fill:#F5575D;}
	.st3{fill:#152140;}
	.st4{opacity:0.4;fill:#FFFFFF;stroke:#0F0F0F;stroke-width:6;stroke-miterlimit:10;}
	.st5{fill:#FFFFFF;}
	.st6{fill:#FF8777;}
	.st7{fill:url(#SVGID_1_);}
	.st8{fill:#003F74;}
	.st9{fill:#041A33;}
	.st10{fill:#032B47;}
	.st11{fill:url(#SVGID_2_);}
</style>
<g>
	<path d="M1024.5,512.44c0,136.76-53.58,261.13-141.02,352.94c-4.49,4.71-9.03,9.36-13.68,13.79
		c-10.2,10.03-20.79,19.56-31.78,28.58c-5.32,4.37-10.7,8.58-16.08,12.72c-0.84,0.62-1.63,1.18-2.35,1.79
		c-0.79,0.62-1.63,1.18-2.36,1.74c-1.79,1.29-3.59,2.58-5.32,3.87c-21.52,15.64-44.39,29.59-68.43,41.64
		c-1.85,1.01-3.7,1.91-5.6,2.8c-50.05,24.66-104.87,41.31-162.6,48.31c-0.5,0.06-1.06,0.11-1.57,0.17
		c-15.3,1.85-30.83,3.03-46.46,3.47c-0.95,0.06-2.02,0.06-3.03,0.06c-1.06,0.06-2.13,0.06-3.08,0.06c-1.85,0.06-3.7,0.11-5.5,0.06
		c-0.22,0.06-0.45,0.06-0.67,0.06h-5.6c-1.18,0-2.47,0-3.76-0.06c-3.25,0-6.61-0.11-9.81-0.22c-1.06,0-2.18-0.06-3.25-0.11
		c-0.96-0.06-2.02-0.11-3.03-0.17c-0.56,0-1.12,0-1.68-0.05c-0.28,0-0.56-0.06-0.78-0.06c-9.25-0.45-18.33-1.07-27.35-2.07
		c-61.43-6.16-119.55-23.37-172.57-49.49c-1.85-0.84-3.76-1.79-5.6-2.75c-0.34-0.17-0.67-0.34-0.96-0.5
		c-24.38-12.33-47.58-26.68-69.33-42.71c-1.12-0.78-2.13-1.57-3.25-2.41c-0.84-0.56-1.63-1.12-2.35-1.74
		c-0.84-0.56-1.52-1.18-2.36-1.79c-18.33-13.79-35.59-28.81-51.84-45.01c-3.31-3.25-6.61-6.61-9.81-9.98
		C54.19,773.63,0.5,649.31,0.5,512.44C0.5,229.68,229.74,0.5,512.5,0.5C795.32,0.5,1024.5,229.68,1024.5,512.44z" class="st0"></path>
</g>
<path d="M659.79,945.3c-14.01-8.58-36.37-19.79-65.86-24.66c-11.55-1.9-34.36-5.44-63.05,0.79
	c-29.2,6.39-49.99,19.73-61.37,28.3c-58.91-42.15-88.78-94.5-75.16-129.3c2.58-6.56,7.4-14.29,16.93-21.8
	c1.12-14.07,1.4-30.1,0-47.7c-0.11-1.12-0.17-2.24-0.28-3.36c-1.34-15.13-3.75-29.03-6.72-41.64c-0.06-0.45-0.17-0.84-0.28-1.29
	v-0.06c-3.31-13.95-7.34-26.29-11.26-36.88c78.92-8.07,157.83-16.14,236.75-24.21c-3.92,11.49-8.69,26.51-13.51,44.39
	c-1.8,6.67-3.59,13.68-5.33,21.13c-0.17,0.79-0.39,1.57-0.56,2.35c-7.96,34.3-9.36,51.96-8.86,61.6c0.22,5.1,1.01,7.96,1.57,9.92
	c8.52,28.3,34.24,45.4,53.36,54.53C657.33,873.34,658.56,909.32,659.79,945.3z" class="st1"></path>
<path d="M615.97,687.87c-1.8,6.67-3.59,13.68-5.33,21.13c-0.17,0.79-0.39,1.57-0.56,2.35
	c-7.96,34.3-9.36,51.96-8.86,61.6c-7.51,2.63-12.72,4.09-14.46,4.59c-18.89,5.21-44.11,12.16-76.9,9.3
	c-37.83-3.31-71.46-18.38-98.87-39.29c-1.34-15.13-3.75-29.03-6.72-41.64C474.84,699.93,545.4,693.93,615.97,687.87z" class="st2"></path>
<ellipse ry="40.54" rx="60.83" cy="546.38" cx="271.64" class="st1" transform="matrix(0.1204 -0.9927 0.9927 0.1204 -303.4758 750.2398)"></ellipse>
<path d="M300.35,565.25c-4.64-13.39-12.93-26.29-25.38-33.6c-3.02-1.77-6.07-3.45-9.58-4.56
	c-3.41-1.13-7.65-1.25-10.92,0.76c-6.53,4.24-7.67,12.2-7.24,18.75c0.16-6.58,2.5-14.09,8.24-16.86c5.83-2.6,11.93,1.72,17.14,5.49
	c10.5,7.77,16.6,19.95,19.53,32.44c0.54,2.3,2.85,3.73,5.15,3.19c2.3-0.54,3.74-2.85,3.2-5.15
	C300.45,565.56,300.4,565.38,300.35,565.25z" class="st3"></path>
<ellipse ry="65.17" rx="49.4" cy="539.87" cx="774.73" class="st1"></ellipse>
<path d="M738.65,562.3c3.73-14.72,11.41-29.24,24.03-38.17c3.06-2.16,6.17-4.23,9.81-5.74
	c3.54-1.52,8.05-2.03,11.73-0.18c7.36,3.93,9.3,12.33,9.43,19.36c-0.77-7.01-3.95-14.81-10.33-17.25
	c-6.46-2.24-12.58,2.92-17.79,7.41c-10.5,9.25-15.91,22.81-17.89,36.41c-0.37,2.51-2.7,4.24-5.21,3.88
	c-2.51-0.37-4.25-2.7-3.88-5.21C738.58,562.64,738.61,562.45,738.65,562.3z" class="st3"></path>
<path d="M728.91,483.64c6.35-5.91,20.19-20.44,26.03-43.7c3.83-15.26,2.73-28.32,1.4-36.26
	c1.38-0.18,5.74-0.92,9.3-4.65c4.84-5.07,4.28-11.57,4.18-12.55c0.78,0.06,9.27,0.62,12.09-4.18c3.4-5.8-4.19-14.75-5.11-15.81
	c-8.68-10-18.98-6.84-32.08-14.41c-5.57-3.22-12.79-9.04-19.06-20.46c14.23,0.86,26.25,0.78,35.33,0.47
	c19.11-0.67,26.2-2.42,28.82-7.44c1.54-2.96,1.14-6.3,0.47-8.83c-3.4,1.34-8.51,3.08-14.88,4.18c-26.29,4.55-44.29-6.93-61.37-10.69
	c-15.41-3.4-38.05-2.29-69.74,17.67c1.48-4.95,4.43-12.23,10.69-18.6c8.44-8.57,19.55-12.09,46.03-14.41
	c15.21-1.33,35.96-2.31,60.91-0.93c-5.03-2.48-12.13-5.61-20.92-8.37c-12.36-3.87-30.39-9.52-52.07-6.04
	c-17.24,2.76-30.71,10.32-39.98,17.2c4.66-6.87,11.92-15.64,22.78-23.25c26.59-18.62,55.57-16.82,65.09-15.81
	c-4.3-2.89-9.4-5.56-15.34-7.44c-28.75-9.1-55.47,7.07-61.83,11.16c6.13-8.38,15.4-18.3,28.83-26.03
	c8.6-4.96,25.82-14.89,47.88-11.62c12.8,1.89,22.22,7.48,27.43,11.16c-2.71-7.62-6.6-12.32-10.23-15.34
	c-21.81-18.15-67.4-3.19-93.45,21.39c-11.34,10.7-17.98,22.27-21.85,30.68c-0.47-17.79-5.95-28.58-9.76-34.4
	c-27.32-41.74-108.18-41.02-155.28-25.57c-14.39,4.72-28.86,9.2-43.24,13.95c-35.42,11.69-42.43,14.65-53.46,12.09
	c-19.12-4.44-32.59-21.35-36.73-17.67c-2.32,2.07,1.14,8.09-1.4,9.76c-2.61,1.72-9.94-2.23-13.02-8.37
	c-3.28-6.54-0.49-13.05-1.86-13.48c-1.57-0.49-7.02,7.58-8.83,16.74c-0.94,4.77-2.49,17.9,9.3,35.33c-4.77,2.96-8.13,2.68-9.76,2.32
	c-8.57-1.88-13.19-15.53-12.09-26.04c1.02-9.76,6.87-15.67,6.05-16.27c-1.1-0.8-13.02,8.83-18.13,22.32
	c-8.43,22.22,5.29,45.11,8.83,50.68c-6.98,3.03-11.3,1.47-12.55,0.93c-8.07-3.46-12.59-17.17-7.44-33.01
	c-4.94,7.83-10.72,19.88-7.9,32.55c5.51,24.8,39.15,30.04,38.13,46.49c-0.68,10.88-16.18,21.49-28.83,19.99
	c-16.76-1.99-24.28-24.76-25.57-37.66c-1.13-11.31,2-20.51,4.18-25.57c-3.81,3.56-9.11,9.5-12.55,18.13
	c-7.78,19.48-3.14,45.25,11.16,55.79c19.52,14.38,55.22-0.99,55.33-0.47c0.09,0.46-28.24,3.83-50.21,22.32
	c-3.28,2.76-11.52,10.15-9.76,13.95c2.44,5.25,22.54,0.38,23.25,3.26c0.63,2.55-15.13,6.62-14.88,12.09
	c0.18,3.77,7.78,3.99,13.48,10.23c6.54,7.16,5.34,16.52,6.05,23.25c1.06,10.1,7.44,24.02,31.61,39.98
	C451.2,490.77,590.05,487.2,728.91,483.64z" class="st3"></path>
<path d="M362.56,326.03c-17.58,19.75-27.15,54.66-45.56,123.67c-17.56,65.81-26.3,99.24-24.18,125.53
	c0.63,7.86,6.52,70.78,50.21,120.88c80.48,92.3,253.63,100.27,343.11,16.74c42.27-39.46,54.58-88.82,59.51-109.72
	c31.28-132.62-53.13-252.54-96.67-303.76c-14.43-16.98-34.35-28.28-56.34-31.93c-33.81-5.6-77.28-7.4-125.01,4.67
	C435.03,280.35,393.98,290.73,362.56,326.03z" class="st1"></path>
<ellipse ry="46.91" rx="62.9" cy="490.34" cx="451.67" class="st4" transform="matrix(0.2249 -0.9744 0.9744 0.2249 -127.6928 820.1545)"></ellipse>
<circle r="18.34" cy="494.23" cx="457.25" class="st3"></circle>
<circle r="4.99" cy="487" cx="465.68" class="st5"></circle>
<ellipse ry="55.07" rx="74.2" cy="482.61" cx="579.77" class="st4" transform="matrix(0.4346 -0.9006 0.9006 0.4346 -106.8559 794.9958)"></ellipse>
<ellipse ry="20.16" rx="20.27" cy="489.88" cx="584.81" class="st3" transform="matrix(0.2249 -0.9744 0.9744 0.2249 -24.0498 949.5305)"></ellipse>
<ellipse ry="5.49" rx="5.52" cy="484.19" cx="595.64" class="st5" transform="matrix(0.2249 -0.9744 0.9744 0.2249 -10.1061 955.6693)"></ellipse>
<path d="M558.76,407.64c1.23,1.14,13.87-14.76,32.23-17.82c7.42-1.24,13.25,0.04,14.41,0.31
	c5.33,1.23,9.32,3.47,11.78,5.11c-1.06-2.09-2.84-5.03-5.73-7.9c-6.12-6.07-14.15-8.77-20.15-8.99
	C570.48,377.6,557.26,406.25,558.76,407.64z" class="st3"></path>
<path d="M481.27,407.18c-0.49-7.29-10.06-14.75-18.91-15.96c-10.37-1.42-21.52,5.52-27.9,17.36
	c9.61-7.72,16.07-8.33,20.3-7.28c3.24,0.8,7.38,3.13,15.34,7.59c4.47,2.51,7.64,4.52,9.61,3.25
	C481.52,410.97,481.3,407.7,481.27,407.18z" class="st3"></path>
<ellipse ry="12.49" rx="34.1" cy="545.18" cx="607.24" class="st6" transform="matrix(0.9154 -0.4025 0.4025 0.9154 -168.0677 290.512)"></ellipse>
<ellipse ry="25.49" rx="9.34" cy="548.03" cx="419.13" class="st6" transform="matrix(0.6197 -0.7849 0.7849 0.6197 -270.7183 537.3863)"></ellipse>
<linearGradient y2="602.9269" x2="530.4201" y1="778.8854" x1="530.4201" gradientUnits="userSpaceOnUse" id="SVGID_1_">
	<stop style="stop-color:#E9705E;stop-opacity:0.8" offset="0"></stop>
	<stop style="stop-color:#FF9F8E;stop-opacity:0" offset="0.6685"></stop>
</linearGradient>
<ellipse ry="87.98" rx="93.83" cy="690.91" cx="530.42" class="st7"></ellipse>
<g>
	<path d="M511.04,665.43c-1.35,0-2.71-0.03-4.09-0.08c-29.81-1.2-51.83-15.31-62.29-23.62
		c-1.22-0.96-1.42-2.73-0.45-3.94c0.96-1.22,2.73-1.42,3.94-0.45c9.93,7.88,30.82,21.28,59.04,22.4c48.27,2.1,79.17-32.7,84.9-39.66
		c0.99-1.2,2.75-1.37,3.94-0.38c1.2,0.99,1.37,2.75,0.38,3.94C590.53,630.78,559.47,665.43,511.04,665.43z" class="st3"></path>
</g>
<g>
	<path d="M602.02,622.81h-15.57c-1.55,0-2.8-1.25-2.8-2.8s1.25-2.8,2.8-2.8h15.57c1.55,0,2.8,1.25,2.8,2.8
		S603.56,622.81,602.02,622.81z" class="st3"></path>
</g>
<path d="M498.28,683.14c3.6,1.02,12.52,3.03,23.01-0.23c8.31-2.58,13.75-7.26,16.39-9.88c0.06,1.94-0.08,5.21-1.63,8.72
	c-4.4,9.96-18.19,17.33-28.36,12.55C502.12,691.68,499.44,686.25,498.28,683.14z" class="st3"></path>
<path d="M707.64,390.19c-7.3-14.07-15.64-23.74-21.65-29.75c-7.46-7.47-28.82-28.9-43.75-23.25
	c-4.98,1.88-7.38,6.05-11.98,5.11c-5.09-1.04-6.85-7.12-10.59-12.55c-3.88-5.64-11.02-12.21-25.33-16.27
	c1.72,0.68,10.45,4.34,14.28,13.95c2.21,5.55,1.77,10.55,1.38,13.02c-7.44-7.02-18.08-15.34-32.24-21.85
	c-33.82-15.56-65.65-10.71-78.76-7.9c7.9-0.04,20.27,0.92,34.08,6.51c9.34,3.78,16.54,8.55,21.65,12.55
	c-5.72-1.06-14.34-2.58-24.87-4.18c-23.45-3.56-35.17-5.34-48.82-5.11c-9.37,0.15-23.22,1.26-40.07,6.04
	c8.36-2.72,28.39-7.83,48.36,1.39c3.86,1.78,7.22,3.87,10.13,6.04c-28.33-6.06-49.46-3.26-63.56,0.47
	c-8.17,2.16-23.52,8.91-53.89,22.32c-30.54,13.49-40.84,18.65-52.51,14.41c-11.71-4.25-18.25-15.6-21.65-23.25
	c1.41-10.36,4.87-25.93,14.74-41.38c33.75-52.84,110.04-56.52,153.84-58.58c67.34-3.16,122.97,14.59,160.12,31.15
	c11.86,8.5,29.67,23.46,45.1,46.96C698.27,351.36,704.82,375.45,707.64,390.19z" class="st3"></path>
<path d="M869.81,879.17c-10.2,10.03-20.79,19.56-31.78,28.58c-5.32,4.37-10.7,8.58-16.08,12.72
	c-0.84,0.62-1.63,1.18-2.35,1.79c-0.79,0.62-1.63,1.18-2.36,1.74c-1.79,1.29-3.59,2.58-5.32,3.87
	c-21.52,15.64-44.39,29.59-68.43,41.64c-1.85,1.01-3.7,1.91-5.6,2.8c-50.05,24.66-104.87,41.31-162.6,48.31
	c-0.5,0.06-1.06,0.11-1.57,0.17c-15.3,1.85-30.83,3.03-46.46,3.47c-0.95,0.06-2.02,0.06-3.03,0.06c-1.06,0.06-2.13,0.06-3.08,0.06
	c-1.85,0.06-3.7,0.11-5.5,0.06c-0.22,0.06-0.45,0.06-0.67,0.06h-5.6c-1.18,0-2.47,0-3.76-0.06c-3.25,0-6.61-0.11-9.81-0.22
	c-1.06,0-2.18-0.06-3.25-0.11c-0.96-0.06-2.02-0.11-3.03-0.17c-0.56,0-1.12,0-1.68-0.05c-0.28,0-0.56-0.06-0.78-0.06
	c-9.25-0.45-18.33-1.07-27.35-2.07c-61.43-6.16-119.55-23.37-172.57-49.49c-1.85-0.84-3.76-1.79-5.6-2.75
	c-0.34-0.17-0.67-0.34-0.96-0.5c-24.38-12.33-47.58-26.68-69.33-42.71c-1.12-0.78-2.13-1.57-3.25-2.41
	c-0.84-0.56-1.63-1.12-2.35-1.74c-0.84-0.56-1.52-1.18-2.36-1.79c-18.33-13.79-35.59-28.81-51.84-45.01
	c68.1-24.66,154.86-31.11,217.64-32h2.41c6.95-0.11,13.56-0.11,19.84-0.11c33.91,0.17,57.11,1.74,60.25,2.02
	c4.65-0.06,9.36-0.17,14.01-0.22c5.88-0.06,11.77-0.17,17.65-0.22h0.06c26.12-0.45,52.29-0.84,78.35-1.18c0,0,0,0,0.06,0
	c6.17-0.11,12.39-0.22,18.55-0.28c19.84-0.34,39.63-0.62,59.41-0.9c5.66,0.62,11.21,1.23,16.7,1.91c5.27,0.62,10.42,1.23,15.53,1.85
	c0.89,0.11,1.79,0.22,2.63,0.34C754.96,856.47,820.15,868.46,869.81,879.17z" class="st8"></path>
<path d="M573.71,1020.8c-15.3,1.85-30.83,3.03-46.46,3.47c-0.95,0.06-2.02,0.06-3.03,0.06
	c-1.06,0.06-2.13,0.06-3.08,0.06c-1.85,0.06-3.7,0.11-5.5,0.06c-0.22,0.06-0.45,0.06-0.67,0.06h-5.6c-1.18,0-2.47,0-3.76-0.06
	c-3.25,0-6.61-0.11-9.81-0.22c-1.06,0-2.18-0.06-3.25-0.11c-0.96-0.06-2.02-0.11-3.03-0.17c-0.56,0-1.12,0-1.68-0.05l2.24-64.9
	l0.11-2.24l0.39-11.49v-0.22l0.34-8.91l0.05-2.35l0.22-6.56h75.95l0.89,13.17l0.34,4.82l0.11,1.85l0.73,9.98l0.84,11.77
	L573.71,1020.8z" class="st9"></path>
<ellipse ry="28.57" rx="51.82" cy="927.2" cx="531.16" class="st9"></ellipse>
<path d="M676.11,848.23c-0.22-0.28-0.39-0.5-0.62-0.67c-19-20.46-16.25-17.43-35.2-37.83c0-0.06-0.05-0.11-0.11-0.17
	c-0.11-0.17-0.28-0.34-0.45-0.5c-0.56-0.45-1.23-0.73-2.02-0.73c-0.45,0-0.84,0.11-1.23,0.22c-43.94,27.18-87.83,54.31-131.77,81.55
	c-7.79,4.82-8.13,16.09-0.56,21.35c24.94,17.43,49.94,34.92,74.88,52.41c5.72,3.98,13.57,2.63,17.65-2.97
	c26.34-36.21,52.69-72.47,79.03-108.68c0.11-0.17,0.22-0.34,0.34-0.5c0.34-0.5,0.56-1.06,0.56-1.74
	C676.61,849.29,676.44,848.73,676.11,848.23z" class="st10"></path>
<path d="M538.34,890.1c-43.72-27.13-87.55-54.14-131.26-81.21c-0.17-0.11-0.34-0.22-0.51-0.34
	c-0.39-0.11-0.78-0.22-1.23-0.22c-0.84,0-1.63,0.34-2.19,0.84c-0.06,0.06-0.06,0.11-0.11,0.17c-19.28,20.74-16.37,17.65-35.37,38.17
	c-0.22,0.17-0.39,0.39-0.62,0.62c-0.05,0-0.05,0.06-0.05,0.11c-0.34,0.5-0.56,1.06-0.56,1.74c0,0.67,0.22,1.23,0.56,1.74
	c0.11,0.17,0.22,0.34,0.33,0.5c26.29,36.21,52.69,72.47,78.97,108.68c4.09,5.6,11.99,6.95,17.71,2.97
	c24.94-17.49,49.94-34.98,74.88-52.41C546.46,906.18,546.13,894.92,538.34,890.1z" class="st10"></path>
<path d="M676.11,837.02c-0.22-0.28-0.39-0.5-0.62-0.67c-19-20.46-16.25-17.43-35.2-37.83c0-0.06-0.05-0.11-0.11-0.17
	c-0.11-0.17-0.28-0.34-0.45-0.5c-0.56-0.45-1.23-0.73-2.02-0.73c-0.45,0-0.84,0.11-1.23,0.22c-43.94,27.18-87.83,54.31-131.77,81.55
	c-7.79,4.82-8.13,16.09-0.56,21.35c24.94,17.43,49.94,34.92,74.88,52.41c5.72,3.98,13.57,2.63,17.65-2.97
	c26.34-36.21,52.69-72.47,79.03-108.68c0.11-0.17,0.22-0.34,0.34-0.5c0.34-0.5,0.56-1.06,0.56-1.74
	C676.61,838.08,676.44,837.52,676.11,837.02z" class="st8"></path>
<path d="M538.34,878.89c-43.72-27.13-87.55-54.14-131.26-81.21c-0.17-0.11-0.34-0.22-0.51-0.34
	c-0.39-0.11-0.78-0.22-1.23-0.22c-0.84,0-1.63,0.34-2.19,0.84c-0.06,0.06-0.06,0.11-0.11,0.17c-19.28,20.74-16.37,17.65-35.37,38.17
	c-0.22,0.17-0.39,0.39-0.62,0.62c-0.05,0-0.05,0.06-0.05,0.11c-0.34,0.5-0.56,1.06-0.56,1.74c0,0.67,0.22,1.23,0.56,1.74
	c0.11,0.17,0.22,0.34,0.33,0.5c26.29,36.21,52.69,72.47,78.97,108.68c4.09,5.6,11.99,6.95,17.71,2.97
	c24.94-17.49,49.94-34.98,74.88-52.41C546.46,894.97,546.13,883.71,538.34,878.89z" class="st8"></path>
<linearGradient gradientTransform="matrix(1 0 0 1 0 12.4076)" y2="541.0367" x2="457.1609" y1="591.3853" x1="544.3674" gradientUnits="userSpaceOnUse" id="SVGID_2_">
	<stop style="stop-color:#DD5543;stop-opacity:0" offset="0.2403"></stop>
	<stop style="stop-color:#DD5543;stop-opacity:0.6" offset="1"></stop>
</linearGradient>
<path d="M506.3,624.03l-10.7-2.07c-26.84-5.18-44.39-31.14-39.21-57.97l1.74-9.02c3.05-15.77,18.3-26.09,34.07-23.04
	l11.2,2.16c29.19,5.64,48.28,33.88,42.63,63.07v0C542.48,615.55,524.69,627.58,506.3,624.03z" class="st11"></path>
</svg>
