<svg xml:space="preserve" style="enable-background:new 0 0 1024 1024;" viewBox="0 0 1024 1024" y="0px" x="0px" xmlns:xlink="http://www.w3.org/1999/xlink" xmlns="http://www.w3.org/2000/svg" id="图层_1" version="1.1">
<style type="text/css">
	.st0{fill:#5DFDCA;}
	.st1{fill:#FF9F8E;}
	.st2{fill:#F5575D;}
	.st3{fill:#152140;}
	.st4{opacity:0.4;fill:#FFFFFF;stroke:#0F0F0F;stroke-width:6;stroke-miterlimit:10;}
	.st5{fill:#FFFFFF;}
	.st6{fill:#FF8777;}
	.st7{fill:#FFFFF3;}
	.st8{fill:#496534;}
	.st9{fill:none;stroke:#223560;stroke-miterlimit:10;}
	.st10{fill:url(#SVGID_1_);}
</style>
<g>
	<path d="M1024.5,512.44c0,136.76-53.64,261.13-141.07,352.94c-14.24,15.02-29.43,29.2-45.45,42.37
		c-5.27,4.37-10.65,8.58-16.09,12.72c-0.79,0.62-1.57,1.18-2.35,1.79c-0.79,0.62-1.57,1.18-2.35,1.74
		c-1.74,1.29-3.53,2.58-5.27,3.87c-21.58,15.64-44.44,29.59-68.43,41.64c-1.85,1.01-3.7,1.91-5.6,2.8
		c-63.84,31.39-135.19,49.83-210.63,51.96c-1.01,0.06-2.02,0.06-3.03,0.06c-1.06,0.06-2.13,0.06-3.14,0.06
		c-1.8,0.06-3.65,0.11-5.44,0.06c-0.22,0.06-0.45,0.06-0.67,0.06h-5.6c-1.23,0-2.52,0-3.75-0.06c-3.31,0-6.61-0.11-9.86-0.22
		c-1.06,0-2.13-0.06-3.2-0.11c-1.01-0.06-2.02-0.11-3.03-0.17c-0.84,0-1.68-0.06-2.52-0.11c-9.19-0.45-18.27-1.06-27.3-2.07
		c-61.43-6.17-119.61-23.37-172.57-49.49c-1.9-0.84-3.75-1.79-5.6-2.75c-0.34-0.17-0.67-0.34-1.01-0.5
		c-24.33-12.33-47.53-26.68-69.33-42.71c-1.07-0.78-2.13-1.57-3.2-2.41c-0.84-0.56-1.63-1.12-2.41-1.74
		c-0.79-0.56-1.51-1.18-2.3-1.79c-22.03-16.59-42.65-34.97-61.71-54.98C54.14,773.63,0.5,649.31,0.5,512.44
		C0.5,229.68,229.74,0.5,512.45,0.5C795.26,0.5,1024.5,229.68,1024.5,512.44z" class="st0"></path>
</g>
<g>
	<path d="M597.59,669.94v107.33c0,49.47-40.11,89.58-89.58,89.58h0c-49.47,0-89.58-40.11-89.58-89.58V669.94H597.59z" class="st1"></path>
</g>
<g>
	<path d="M597.59,674.33v65.78c-58.88,17.18-127.12,9.23-179.16-13.73v-52.05H597.59z" class="st2"></path>
</g>
<path d="M516.6,741.57c-106.23,0-192.34-86.11-192.34-192.34V398.14c0-43.48,35.25-78.73,78.74-78.73h239.7
	c43.48,0,78.73,35.25,78.73,78.73v138.61C721.42,649.87,629.72,741.57,516.6,741.57z" class="st1"></path>
<path d="M688.75,276.63c23.48,14.84,111.52,74.32,148.77,187.83c10.82,32.97,26.26,82.13,12.09,143.19
	c-17.16,73.96-66.75,117.89-85.54,132.97c6.5-27.58,14.23-78.76-3.72-137c-7-22.72-16.39-41.55-25.42-56.41
	c6.4,14.22,27.2,65.08,9.3,125.84c-12.43,42.17-37.52,68.79-50.21,80.59c5.77-6.48,22.04-26.44,24.79-57.03
	c2.42-26.91-6.95-47.22-11.16-55.17c1.5,4.27,7.35,22.44-1.24,42.77c-7.74,18.31-22.29,26.8-26.66,29.14
	c4.79-6.62,15.19-22.97,14.88-45.25c-0.12-8.71-1.85-16.09-3.72-21.7c0.2,8.65-0.48,30.17-14.26,52.07
	c-17.03,27.06-42.66,36.56-50.21,39.05c12.1-8.34,28.94-22.49,40.91-44.63c24.55-45.37,13.08-95.46,3.72-136.38
	c-11.15-48.71-22.33-53.48-30.99-96.08c-9.16-45.06-5.63-83.95-1.24-109.72c-26.22,9.75-68.28,21.7-120.88,21.08
	c-64.99-0.78-114.82-20.39-141.95-33.47c5.29,44.33,0.81,78.49-4.34,101.66c-7.06,31.76-15.77,44.52-22.94,83.07
	c-1.82,9.79-8.53,48.08-6.2,76.87c5.99,73.94,75.04,126.77,100.42,144.43c-10.35,1.07-28.62,1.57-49.59-5.58
	c-16.94-5.77-29.15-14.32-36.57-20.46c-9.24-0.14-34.47-1.8-55.17-20.46c-6.44-5.8-11.02-11.96-14.26-17.36
	c-1.24,7.23-2.48,14.47-3.72,21.7c-16.9-17.16-66.18-71.65-72.53-154.35c-5.21-67.82,21.29-117.73,39.67-151.25
	c16.15-29.45,84.56-154.25,223.16-175.43C576.27,205.52,655.62,255.69,688.75,276.63z" class="st3"></path>
<ellipse ry="46.91" rx="62.9" cy="504.22" cx="432.24" class="st4" transform="matrix(0.2249 -0.9744 0.9744 0.2249 -156.2836 811.9771)"></ellipse>
<circle r="18.34" cy="508.11" cx="437.81" class="st3"></circle>
<circle r="4.99" cy="500.88" cx="446.25" class="st5"></circle>
<ellipse ry="55.07" rx="74.2" cy="493.49" cx="563.64" class="st4" transform="matrix(0.4346 -0.9006 0.9006 0.4346 -125.7766 786.6214)"></ellipse>
<ellipse ry="20.16" rx="20.27" cy="500.76" cx="568.68" class="st3" transform="matrix(0.2249 -0.9744 0.9744 0.2249 -47.1563 942.2484)"></ellipse>
<ellipse ry="5.49" rx="5.52" cy="495.07" cx="579.51" class="st5" transform="matrix(0.2249 -0.9744 0.9744 0.2249 -33.2127 948.3872)"></ellipse>
<path d="M541.09,418.9c1.23,1.14,13.87-14.76,32.23-17.82c7.42-1.24,13.25,0.04,14.41,0.31
	c5.33,1.23,9.32,3.47,11.78,5.11c-1.06-2.09-2.84-5.03-5.73-7.9c-6.12-6.07-14.15-8.77-20.15-8.99
	C552.81,388.86,539.6,417.51,541.09,418.9z" class="st3"></path>
<path d="M463.6,418.43c-0.49-7.29-10.06-14.75-18.91-15.96c-10.37-1.42-21.52,5.52-27.9,17.36
	c9.61-7.72,16.07-8.33,20.3-7.28c3.24,0.8,7.38,3.13,15.34,7.59c4.47,2.51,7.64,4.52,9.61,3.25
	C463.86,422.23,463.64,418.95,463.6,418.43z" class="st3"></path>
<g>
	<path d="M493.54,677.02c-1.35,0-2.71-0.03-4.09-0.08c-29.81-1.2-51.83-15.31-62.29-23.62
		c-1.22-0.96-1.42-2.73-0.45-3.94c0.96-1.22,2.73-1.42,3.94-0.45c9.93,7.88,30.82,21.28,59.04,22.4c48.27,2.1,79.17-32.7,84.9-39.66
		c0.99-1.2,2.75-1.37,3.94-0.38c1.2,0.99,1.37,2.75,0.38,3.94C573.03,642.36,541.97,677.02,493.54,677.02z" class="st3"></path>
</g>
<g>
	<path d="M584.52,634.4h-15.57c-1.55,0-2.8-1.25-2.8-2.8s1.25-2.8,2.8-2.8h15.57c1.55,0,2.8,1.25,2.8,2.8
		S586.07,634.4,584.52,634.4z" class="st3"></path>
</g>
<path d="M479.68,697.38c3.6,1.02,12.52,3.03,23.01-0.23c8.31-2.58,13.75-7.26,16.39-9.88c0.06,1.94-0.08,5.21-1.63,8.72
	c-4.4,9.96-18.19,17.33-28.36,12.55C483.52,705.92,480.84,700.49,479.68,697.38z" class="st3"></path>
<ellipse ry="12.49" rx="34.1" cy="575.4" cx="583.93" class="st6"></ellipse>
<ellipse ry="9.34" rx="25.49" cy="575.4" cx="412.33" class="st6"></ellipse>
<path d="M511.21,805.13c-0.39,0.05-0.79,0.05-1.18,0.11c-0.56,0.06-1.06,0.06-1.63,0.11c-0.95,0.11-1.85,0.17-2.8,0.22
	c-26.79,2.07-53.52,4.2-80.26,6.28c-4.88,0.39-9.7,0.73-14.52,1.12c-1.68,0.9-3.48,1.79-5.33,2.8c-0.9,0.45-1.85,0.9-2.8,1.4
	c-0.9,0.45-1.85,0.95-2.8,1.46c-14.01,7.23-31.61,16.14-51.96,26.29c-6.11,3.08-12.5,6.22-19,9.47c-4.2,2.07-8.24,4.04-12.05,5.94
	c-2.47,1.23-4.88,2.41-7.23,3.53c-2.19,1.06-4.32,2.07-6.33,3.08c-6.17,3.03-11.72,5.72-16.48,8.02c-0.45,0.17-0.84,0.39-1.29,0.62
	c-0.39,0.17-0.84,0.39-1.23,0.56v0.06c-0.95,0.45-1.9,0.9-2.8,1.29c-7.57,3.64-12.56,6.05-14.35,6.89
	c-20.29,9.81-41.25,23.04-61.6,37.78c0.78,0.62,1.57,1.18,2.41,1.74c1.07,0.84,2.13,1.63,3.2,2.41
	c21.8,16.03,45.01,30.38,69.33,42.71c0.33,0.17,0.67,0.34,1.01,0.5c1.85,0.95,3.7,1.91,5.6,2.75
	c52.97,26.12,111.14,43.33,172.57,49.49c9.02,1.01,18.1,1.63,27.3,2.07c0.84,0.06,1.68,0.11,2.52,0.11
	c1.01,0.06,2.02,0.11,3.03,0.17c1.06,0.06,2.13,0.11,3.2,0.11c3.25,0.11,6.56,0.22,9.86,0.22c1.23,0.06,2.52,0.06,3.75,0.06h2.8
	V805.07C511.83,805.07,511.55,805.13,511.21,805.13z" class="st7"></path>
<path d="M509.36,857.25v167.25h1.85V857.25H509.36z M509.36,857.25v167.25h1.85V857.25H509.36z M514.07,803.05
	c-0.45-0.45-0.95-0.67-1.51-0.73c-0.06,0-0.06,0-0.11,0c-0.17-0.06-0.34-0.06-0.51-0.06l-0.67,0.06h-0.11l-2.69,0.22h-0.11
	l-2.69,0.22h-0.11l-81.33,6.33l-13.62,1.06c-0.39,0.06-0.73,0.17-1.12,0.34c-1.29,0.67-2.58,1.34-3.98,2.07
	c-0.9,0.45-1.85,0.95-2.8,1.46c-0.9,0.45-1.85,0.95-2.8,1.46c-14.57,7.51-32.79,16.7-53.19,26.9c-3.75,1.9-7.51,3.75-11.38,5.72
	l-7.62,3.75c-18.16,8.91-33.4,16.37-44.28,21.63c-0.17,0.06-0.39,0.17-0.56,0.28c-0.06,0-0.06,0-0.11,0.05
	c-8.91,4.32-14.8,7.12-16.81,8.02c-19,9.14-40.07,22.08-62.66,38.5c0.79,0.62,1.51,1.23,2.3,1.79c0.78,0.62,1.57,1.18,2.41,1.74
	c21.8-15.75,42.09-28.14,60.36-36.99c1.68-0.79,6.28-2.97,13.17-6.28c0.9-0.45,1.8-0.9,2.8-1.34c0.9-0.45,1.85-0.9,2.8-1.35
	c10.82-5.21,25.62-12.44,43.05-21.02l7.62-3.81c2.63-1.29,5.27-2.58,7.85-3.92h0.06c1.18-0.56,2.35-1.18,3.53-1.74
	c19.28-9.64,36.49-18.33,50.67-25.67c0.95-0.5,1.9-0.95,2.8-1.46c0.95-0.45,1.9-0.95,2.8-1.4c2.13-1.12,4.15-2.19,6.11-3.2
	l14.91-1.18l49.15-3.81l9.25-0.73l20.68-1.63l2.8-0.22l0.95-0.06v216.4h5.6V805.07C514.97,804.29,514.63,803.56,514.07,803.05z
	 M509.36,857.25v167.25h1.85V857.25H509.36z M509.36,857.25v167.25h1.85V857.25H509.36z"></path>
<path d="M287.13,876.14v96.12c-1.9-0.84-3.75-1.79-5.6-2.75v-93.38c0-0.95,0.5-1.79,1.23-2.3c0.05-0.05,0.05-0.05,0.11-0.05
	c0.17-0.11,0.39-0.22,0.56-0.28c0.28-0.11,0.56-0.17,0.9-0.17c1.06,0,2.02,0.67,2.52,1.57v0.06
	C287.02,875.3,287.13,875.69,287.13,876.14z"></path>
<path d="M284.31,876.15v82.45c11.95-20.15,23.82-40.87,35.69-62.13c9.64-17.37,18.96-34.57,27.96-51.54
	c-6.13,3.11-12.51,6.21-19.04,9.48C310.6,863.4,295.22,870.89,284.31,876.15z" class="st8"></path>
<path d="M757.82,884.38c-1.79-0.84-6.78-3.25-14.35-6.89c-0.9-0.39-1.85-0.84-2.8-1.29v-0.06
	c-0.84-0.39-1.68-0.79-2.52-1.18c-0.11-0.06-0.22-0.11-0.34-0.17c-1.9-0.95-3.98-1.96-6.17-3.03c-2.02-0.9-4.15-1.96-6.39-3.08
	c-3.14-1.51-6.45-3.14-9.92-4.82c-2.35-1.12-4.76-2.3-7.23-3.53c-3.81-1.91-7.85-3.87-12.05-5.94c-6.56-3.25-12.89-6.39-19.06-9.47
	c-24.44-12.22-45.01-22.64-60.03-30.49c-0.95-0.5-1.91-0.95-2.8-1.46c-0.95-0.06-1.85-0.17-2.8-0.22
	c-6.84-0.5-13.62-1.06-20.46-1.57c-25.33-2.02-50.61-3.98-75.95-5.94c-0.73-0.06-1.4-0.11-2.13-0.17v219.43h2.13
	c0.22,0,0.45,0,0.67-0.06c1.79,0.06,3.64,0,5.44-0.06c1.01,0,2.07,0,3.14-0.06c1.01,0,2.02,0,3.03-0.06
	c75.44-2.13,146.79-20.57,210.63-51.96c1.9-0.9,3.75-1.79,5.6-2.8c23.99-12.05,46.86-26.01,68.43-41.64
	c1.74-1.29,3.53-2.58,5.27-3.87c0.78-0.56,1.57-1.12,2.35-1.74C799.19,907.53,778.11,894.19,757.82,884.38z" class="st7"></path>
<path d="M512.84,825.42v31.83h-1.63v167.25h3.75c0.22,0,0.45,0,0.67-0.06V825.42H512.84z"></path>
<path d="M512.84,825.42v31.83h-1.63v167.25h3.75c0.22,0,0.45,0,0.67-0.06V825.42H512.84z"></path>
<path d="M759,881.8c-1.96-0.9-7.85-3.7-16.76-7.96c-0.06-0.05-0.06-0.05-0.11-0.05c-0.17-0.11-0.39-0.22-0.56-0.28l-0.05-0.05
	c-10.88-5.21-26.12-12.67-44.22-21.58l-7.51-3.7c-3.92-1.96-7.73-3.87-11.49-5.77c-24.44-12.16-45.57-22.92-61.32-31.11
	c-0.51-0.28-1.01-0.5-1.51-0.78c-0.34-0.17-0.67-0.28-1.06-0.34h-0.22l-2.8-0.22l-19.34-1.51l-78.97-6.17c-0.17,0-0.34,0-0.5,0.06
	c-0.06,0-0.06,0-0.11,0c-0.45,0.05-0.84,0.22-1.18,0.5c-0.06-0.06-0.06,0-0.11,0.06c-0.06,0.06-0.17,0.11-0.22,0.17
	c-0.56,0.5-0.9,1.23-0.9,2.02v219.43h4.93c0.22,0,0.45,0,0.67-0.06V808.1l24.77,1.91c0.06,0.06,0.11,0,0.11,0l9.3,0.78
	c0.05,0,0.05,0,0.05,0l39.85,3.08l21.63,1.68l2.02,0.17c0.28,0.11,0.5,0.28,0.79,0.39c0.89,0.5,1.85,1.01,2.8,1.46
	c15.47,8.07,35.7,18.33,58.79,29.87c1.18,0.62,2.35,1.18,3.53,1.79c2.63,1.29,5.27,2.63,7.96,3.92l7.57,3.75
	c17.48,8.63,32.28,15.81,43.04,21.02c0.95,0.45,1.9,0.9,2.8,1.35c0.95,0.5,1.9,0.95,2.8,1.34c6.89,3.31,11.43,5.49,13.11,6.28
	c18.33,8.86,38.73,21.3,60.59,37.1c0.78-0.56,1.57-1.12,2.35-1.74c0.78-0.62,1.57-1.18,2.35-1.79
	C799.19,904,778.06,890.99,759,881.8z"></path>
<path d="M511.21,849.12v175.38h-1.85c-1.23,0-2.52,0-3.75-0.06V849.12c0-1.57,1.29-2.8,2.8-2.8c0.34,0,0.67,0.06,0.95,0.17
	c0.22,0.06,0.45,0.17,0.67,0.34C510.76,847.33,511.21,848.17,511.21,849.12z"></path>
<path d="M525.56,1017.72c0,2.35-0.45,4.6-1.35,6.61c-1.06,0.06-2.13,0.06-3.14,0.06c-1.8,0.06-3.65,0.11-5.44,0.06
	c-0.22,0.06-0.45,0.06-0.67,0.06h-5.6c-1.23,0-2.52,0-3.75-0.06c-3.31,0-6.61-0.11-9.86-0.22c-1.06,0-2.13-0.06-3.2-0.11
	c-0.79-1.96-1.23-4.15-1.23-6.39c0-8.52,6.17-15.58,14.29-16.87c0.9-0.22,1.85-0.28,2.8-0.28c0.34,0,0.62,0,0.95,0.06
	c0.22,0,0.45,0,0.67,0.06c0.39,0,0.79,0.06,1.18,0.17c0.34,0,0.67,0.06,0.95,0.17c0.22,0,0.45,0.06,0.67,0.17
	c0.73,0.17,1.46,0.39,2.13,0.67c0.22,0.11,0.45,0.22,0.67,0.34C521.53,1004.88,525.56,1010.82,525.56,1017.72z" class="st7"></path>
<path d="M515.64,999.17c-0.22-0.11-0.45-0.22-0.67-0.28c-0.67-0.28-1.4-0.45-2.13-0.62c-0.22-0.06-0.45-0.11-0.67-0.17
	c-0.34-0.06-0.62-0.11-0.95-0.11c-0.39-0.06-0.79-0.11-1.18-0.11c-0.22-0.06-0.45-0.06-0.67-0.06c-0.28-0.06-0.62-0.06-0.95-0.06
	c-0.95,0-1.9,0.06-2.8,0.22c-9.64,1.35-17.09,9.7-17.09,19.73c0,2.19,0.34,4.26,1.01,6.22c1.01,0.06,2.02,0.11,3.03,0.17
	c1.06,0.06,2.13,0.11,3.2,0.11c-1.06-1.96-1.63-4.15-1.63-6.5c0-6.95,4.93-12.72,11.49-14.07c0.9-0.17,1.85-0.28,2.8-0.28
	c0.34,0,0.62,0,0.95,0.06h0.67c0.39,0.11,0.79,0.17,1.18,0.22c0.34,0.06,0.62,0.17,0.95,0.22c0.22,0.05,0.45,0.11,0.67,0.22
	c0.73,0.22,1.46,0.5,2.13,0.9c0.22,0.11,0.45,0.22,0.67,0.34c4.26,2.52,7.12,7.12,7.12,12.39c0,2.41-0.62,4.71-1.68,6.67
	c1.01,0,2.07,0,3.14-0.06c1.01,0,2.02,0,3.03-0.06c0.73-2.07,1.12-4.26,1.12-6.56C528.36,1009.31,523.09,1002.02,515.64,999.17z"></path>
<circle r="17.13" cy="963.54" cx="508.43" class="st7"></circle>
<path d="M515.64,945.02c-0.22-0.11-0.45-0.22-0.67-0.28c-0.67-0.28-1.4-0.45-2.13-0.62c-0.22-0.06-0.45-0.11-0.67-0.17
	c-0.34-0.06-0.62-0.11-0.95-0.11c-0.39-0.06-0.79-0.11-1.18-0.11c-0.22-0.06-0.45-0.06-0.67-0.06c-0.28-0.05-0.62-0.05-0.95-0.05
	c-0.95,0-1.9,0.05-2.8,0.22c-9.64,1.34-17.09,9.64-17.09,19.67s7.45,18.38,17.09,19.73c0.9,0.17,1.85,0.22,2.8,0.22
	c0.34,0,0.67,0,0.95-0.06c0.22,0,0.45,0,0.67-0.06c0.39,0,0.79-0.06,1.18-0.11c0.34,0,0.62-0.06,0.95-0.11
	c0.22-0.05,0.45-0.11,0.67-0.17c0.73-0.17,1.46-0.34,2.13-0.62c0.22-0.06,0.45-0.17,0.67-0.28c7.45-2.86,12.72-10.15,12.72-18.55
	S523.09,947.88,515.64,945.02z M515.64,975.91c-0.22,0.11-0.45,0.22-0.67,0.34c-0.67,0.39-1.4,0.67-2.13,0.9
	c-0.22,0.11-0.45,0.17-0.67,0.22c-0.34,0.05-0.62,0.17-0.95,0.22c-0.39,0.06-0.79,0.11-1.18,0.22h-0.67
	c-0.34,0.06-0.62,0.06-0.95,0.06c-0.95,0-1.9-0.11-2.8-0.28c-6.56-1.35-11.49-7.12-11.49-14.07c0-6.95,4.93-12.72,11.49-14.01
	c0.9-0.17,1.85-0.28,2.8-0.28c0.34,0,0.62,0,0.95,0.05h0.67c0.39,0.06,0.79,0.17,1.18,0.22c0.34,0.06,0.62,0.11,0.95,0.22
	c0.22,0.06,0.45,0.11,0.67,0.17c0.73,0.28,1.46,0.56,2.13,0.95c0.22,0.05,0.45,0.17,0.67,0.34c4.26,2.47,7.12,7.06,7.12,12.33
	S519.9,973.38,515.64,975.91z"></path>
<path d="M743.47,876.14v93.38c-1.85,1.01-3.7,1.91-5.6,2.8v-96.18c0-0.45,0.11-0.84,0.28-1.18v-0.06c0.45-0.9,1.4-1.57,2.52-1.57
	c0.28,0,0.56,0.06,0.84,0.11l0.05,0.05c0.17,0.06,0.39,0.17,0.56,0.28c0.05,0,0.05,0,0.11,0.05
	C742.97,874.35,743.47,875.19,743.47,876.14z"></path>
<path d="M740.67,876.15v82.45c-11.95-20.15-23.82-40.87-35.69-62.13c-9.64-17.37-18.96-34.57-27.96-51.54
	c6.13,3.11,12.51,6.21,19.04,9.48C714.38,863.4,729.75,870.89,740.67,876.15z" class="st8"></path>
<path d="M508.43,883.93H404.76c-1.14,0-2.06-0.92-2.06-2.06v-136.4c0-1.14,0.92-2.06,2.06-2.06h92.65
	c6.08,0,11.01,4.93,11.01,11.01V883.93z" class="st7"></path>
<path d="M505.61,825.42v23.71c0-1.57,1.29-2.8,2.8-2.8v-20.91H505.61z M505.61,825.42v23.71c0-1.57,1.29-2.8,2.8-2.8v-20.91H505.61z
	 M505.61,825.42v23.71c0-1.57,1.29-2.8,2.8-2.8v-20.91H505.61z M505.61,825.42v23.71c0-1.57,1.29-2.8,2.8-2.8v-20.91H505.61z
	 M505.61,825.42v23.71c0-1.57,1.29-2.8,2.8-2.8v-20.91H505.61z M505.61,825.42v23.71c0-1.57,1.29-2.8,2.8-2.8v-20.91H505.61z
	 M505.61,825.42v23.71c0-1.57,1.29-2.8,2.8-2.8v-20.91H505.61z M505.61,825.42v23.71c0-1.57,1.29-2.8,2.8-2.8v-20.91H505.61z
	 M505.61,825.42v23.71c0-1.57,1.29-2.8,2.8-2.8v-20.91H505.61z M505.61,825.42v23.71c0-1.57,1.29-2.8,2.8-2.8v-20.91H505.61z
	 M505.61,825.42v23.71c0-1.57,1.29-2.8,2.8-2.8v-20.91H505.61z M505.61,825.42v23.71c0-1.57,1.29-2.8,2.8-2.8v-20.91H505.61z
	 M505.61,825.42v23.71c0-1.57,1.29-2.8,2.8-2.8v-20.91H505.61z M505.61,825.42v23.71c0-1.57,1.29-2.8,2.8-2.8v-20.91H505.61z
	 M505.61,825.42v23.71c0-1.57,1.29-2.8,2.8-2.8v-20.91H505.61z M505.61,825.42v23.71c0-1.57,1.29-2.8,2.8-2.8v-20.91H505.61z
	 M505.61,825.42v23.71c0-1.57,1.29-2.8,2.8-2.8v-20.91H505.61z M505.61,825.42v23.71c0-1.57,1.29-2.8,2.8-2.8v-20.91H505.61z
	 M505.61,825.42v23.71c0-1.57,1.29-2.8,2.8-2.8v-20.91H505.61z M505.61,825.42v23.71c0-1.57,1.29-2.8,2.8-2.8v-20.91H505.61z
	 M511.16,802.89v-0.56c-0.17-3.59-0.62-7.06-1.29-10.48v-0.06c-0.39-1.85-0.9-3.64-1.46-5.44c-8.02-26.45-32.68-45.74-61.71-45.74
	h-32.45c-7.9,0-14.35,6.45-14.35,14.35v117.42c0,7.9,6.44,14.35,14.35,14.35h96.96v-81.61C511.21,804.4,511.21,803.61,511.16,802.89
	z M405.5,754.96c0-4.82,3.92-8.74,8.74-8.74h32.45c31.72,0,57.62,25.11,58.85,56.55c0.05,0.78,0.05,1.57,0.05,2.35v76h-91.36
	c-4.82,0-8.74-3.92-8.74-8.74V754.96z M505.61,825.42v23.71c0-1.57,1.29-2.8,2.8-2.8v-20.91H505.61z M505.61,825.42v23.71
	c0-1.57,1.29-2.8,2.8-2.8v-20.91H505.61z M505.61,825.42v23.71c0-1.57,1.29-2.8,2.8-2.8v-20.91H505.61z M505.61,825.42v23.71
	c0-1.57,1.29-2.8,2.8-2.8v-20.91H505.61z M505.61,825.42v23.71c0-1.57,1.29-2.8,2.8-2.8v-20.91H505.61z M505.61,825.42v23.71
	c0-1.57,1.29-2.8,2.8-2.8v-20.91H505.61z M505.61,825.42v23.71c0-1.57,1.29-2.8,2.8-2.8v-20.91H505.61z M505.61,825.42v23.71
	c0-1.57,1.29-2.8,2.8-2.8v-20.91H505.61z M505.61,825.42v23.71c0-1.57,1.29-2.8,2.8-2.8v-20.91H505.61z M505.61,825.42v23.71
	c0-1.57,1.29-2.8,2.8-2.8v-20.91H505.61z M505.61,825.42v23.71c0-1.57,1.29-2.8,2.8-2.8v-20.91H505.61z M505.61,825.42v23.71
	c0-1.57,1.29-2.8,2.8-2.8v-20.91H505.61z M505.61,825.42v23.71c0-1.57,1.29-2.8,2.8-2.8v-20.91H505.61z M505.61,825.42v23.71
	c0-1.57,1.29-2.8,2.8-2.8v-20.91H505.61z M505.61,825.42v23.71c0-1.57,1.29-2.8,2.8-2.8v-20.91H505.61z M505.61,825.42v23.71
	c0-1.57,1.29-2.8,2.8-2.8v-20.91H505.61z M505.61,825.42v23.71c0-1.57,1.29-2.8,2.8-2.8v-20.91H505.61z M505.61,825.42v23.71
	c0-1.57,1.29-2.8,2.8-2.8v-20.91H505.61z M505.61,825.42v23.71c0-1.57,1.29-2.8,2.8-2.8v-20.91H505.61z"></path>
<path d="M508.43,883.93h103.66c1.14,0,2.06-0.92,2.06-2.06v-136.4c0-1.14-0.92-2.06-2.06-2.06h-92.65
	c-6.08,0-11.01,4.93-11.01,11.01V883.93z" class="st7"></path>
<path d="M602.57,740.62h-32.4c-29.03,0-53.69,19.28-61.77,45.74c-0.56,1.79-1.06,3.59-1.46,5.44v0.06
	c-0.73,3.53-1.18,7.17-1.29,10.93c-0.06,0.78-0.06,1.57-0.06,2.35v81.61h96.96c7.96,0,14.4-6.45,14.4-14.35V754.96
	C616.97,747.06,610.53,740.62,602.57,740.62z M611.37,872.39c0,4.82-3.92,8.74-8.8,8.74h-91.36v-76c0-0.79,0-1.51,0.06-2.3v-0.5
	c1.46-31.22,27.35-56.11,58.91-56.11h32.4c4.87,0,8.8,3.92,8.8,8.74V872.39z"></path>
<g>
	<rect height="5.6" width="68.72" y="851.65" x="478.36"></rect>
</g>
<g>
	<circle r="13.11" cy="854.45" cx="481.22"></circle>
</g>
<g>
	<circle r="13.11" cy="854.45" cx="544.22"></circle>
</g>
<g>
	<rect height="5.6" width="68.72" y="819.79" x="478.36"></rect>
</g>
<g>
	<circle r="13.11" cy="822.59" cx="481.22"></circle>
</g>
<g>
	<circle r="13.11" cy="822.59" cx="544.22"></circle>
</g>
<path d="M335.95,351.65c-4.94,20.86-11.78,51.41-18.6,88.64c-26.58,145.12-14.42,181.38-7.44,197.74
	c7.58,17.76,23.06,44.89,57.65,71.29" class="st9"></path>
<path d="M665.11,352.19c10.02,16.02,22.26,40.43,26.04,71.6c3.5,28.87-4.34,30.03-2.79,57.65
	c3.2,57.19,38.07,75.02,38.12,134.82c0.01,10.65-1.09,19.23-1.86,24.17" class="st9"></path>
<linearGradient y2="560.1575" x2="444.5399" y1="610.5062" x1="531.7464" gradientUnits="userSpaceOnUse" id="SVGID_1_">
	<stop style="stop-color:#DD5543;stop-opacity:0" offset="0.2403"></stop>
	<stop style="stop-color:#DD5543;stop-opacity:0.6" offset="1"></stop>
</linearGradient>
<path d="M493.68,630.74l-10.7-2.07c-26.84-5.18-44.39-31.14-39.21-57.97l1.74-9.02c3.05-15.77,18.3-26.09,34.07-23.04
	l11.2,2.16c29.19,5.64,48.28,33.88,42.63,63.07v0C529.86,622.27,512.07,634.29,493.68,630.74z" class="st10"></path>
</svg>
