<svg t="1640501778348" class="icon" viewBox="0 0 1024 1024" version="1.1" xmlns="http://www.w3.org/2000/svg" p-id="2059" width="24" height="24"><path d="M512 512m-512 0a512 512 0 1 0 1024 0 512 512 0 1 0-1024 0Z" fill="#E55A4A" p-id="2060"></path><path d="M326.2272 337.5744v344.7488h413.7024V337.5744H326.2272z m0-34.4768h413.7024a34.4768 34.4768 0 0 1 34.4768 34.4768v344.7488a34.4768 34.4768 0 0 1-34.4768 34.4768H326.2272a34.4768 34.4768 0 0 1-34.4768-34.4768V337.5744a34.4768 34.4768 0 0 1 34.4768-34.4768z m0 0" fill="#FFFFFF" p-id="2061"></path><path d="M409.4464 509.088l60.9536 60.9344-24.3776 24.3904-60.9536-60.9344-24.3776-24.3904L446.016 423.7632l24.3776 24.3712-60.9472 60.9536z m245.5168 0l-60.9344 60.9344 24.3712 24.3904 85.3248-85.3248-85.3248-85.3248-24.352 24.3712 60.9344 60.9536h-0.0192zM534.112 442.2592h34.4768l-35.5136 153.8816h-34.4768l35.5136-153.8816z m0 0" fill="#FFFFFF" p-id="2062"></path></svg>