<svg t="1644588399816" class="icon" viewBox="0 0 1024 1024" version="1.1" xmlns="http://www.w3.org/2000/svg" p-id="4526" width="32" height="32"><path d="M609.8 909.1c98.1 26.6 235.5-80.4 227.2-140.6-8.3-60.2-76.1-37.4-117.8-96.7-41.7-59.3-39.5-56.5-39.5-56.5s-33 23.1-76.8 44.9c-38 18.9-85.3 34.2-85.3 34.2s-48.7 176.5 92.2 214.7z" fill="#E2C269" p-id="4527"></path><path d="M157 668c-55.2-102.9-22.4-416.1 178.8-505.9s433 17.3 509.4 127.2-47.1 313.2-252 400.9C376.2 783 207.1 761.3 157 668z" fill="#A57C47" p-id="4528"></path><path d="M209 447.6s48.9-81 182.9-118.6c0 0 45.5-88.4 139.7-138.6 0 0-72.3 56.8-93.9 130 0 0 147-27.6 294.1 64.8 0 0-186.7-55-309.3-13.2 0 0-66.6 81.6-84.2 250.6 0 0-31.1-113.5 39.7-246.2 0-0.1-28.8-11.3-169 71.2z" fill="#FFE9CC" p-id="4529"></path><path d="M496.8 128.5v26c34.2 0 69.2 4.4 103.9 12.9 32.5 8 64.2 19.6 94.2 34.3 55.7 27.4 102.7 64.6 128.8 102.3 24.8 35.7 19.6 79.5 10.9 109.9-13.1 45.7-43.7 95-86.2 138.9-45.9 47.4-103.1 86.6-165.5 113.3-88 37.7-172.1 57.6-243.2 57.6-40.8 0-75.7-6.4-103.8-19.1-25.9-11.7-44.7-28.2-55.9-49.1-26.3-49.1-31.2-165.5 6.3-275.2 15.2-44.6 35.8-83.5 61.2-115.8 28-35.5 61.2-62.1 98.9-78.9 46.5-20.7 97.1-31.3 150.4-31.3v-25.8m0 0c-53.5 0-108.3 10-161 33.5C134.6 251.9 101.9 565.1 157 668c27.9 52.1 92.9 81.9 182.7 81.9 71 0 157.6-18.7 253.4-59.7 204.9-87.7 328.3-291 252-400.9-56.3-81.1-197.3-160.8-348.3-160.8z" fill="" p-id="4530"></path><path d="M673.8 650.8c5.8 8.3 13.9 19.8 25.2 35.9 23.9 34 55.3 46.3 78.2 55.3 11.1 4.4 20.7 8.1 26.7 13 3.6 2.9 7 6.9 8.4 17 1 7-4 22.1-21 41.6-16.7 19.2-41.1 37.9-66.8 51.2-28.2 14.6-56.2 22.4-80.9 22.4-9.2 0-17.9-1.1-25.9-3.3-26.2-7.1-45.5-19.8-58.9-38.9-11-15.6-18-35.5-20.8-59.3-3.4-28.6 0.2-56.1 3-71.6 17.5-6.2 48-17.5 74.6-30.8 23.4-11.6 43.8-23.6 58.2-32.5m6.9-35.6c0 0.1 0 0.1 0 0 0 0.1 0 0 0 0z m0 0.1c-0.5 0.4-33.4 23.2-76.8 44.9-38 18.9-85.3 34.2-85.3 34.2S469.9 871 610.8 909.1c10.5 2.8 21.5 4.2 32.7 4.2 93.2 0 202-91 194.6-144.7-8.3-60.2-76.1-37.4-117.8-96.7-36.1-51.5-39.3-56.3-39.6-56.6zM338.3 627.6c-2.2 0-4.2-1.5-4.8-3.7-0.3-1.2-7.9-29.6-6.9-74.8 1-40.2 9.3-101.4 43.3-168.1-14.6 1.3-57 11.3-158.4 70.9-2 1.2-4.5 0.8-6.1-0.8-1.6-1.6-1.9-4.1-0.7-6.1 0.5-0.9 13-21.2 42.2-46.4 26.6-22.9 72.6-54.1 141.6-73.8 3.3-6.1 14.5-25.4 34.1-49.4 21.4-26.2 57.3-63 106.7-89.3 2.3-1.2 5.1-0.5 6.5 1.7 1.4 2.2 0.9 5.1-1.1 6.7-0.7 0.5-66.3 52.8-89.8 119.9 13.9-1.8 44.4-4.5 85.1-1.1 50.9 4.3 127.6 19.5 204.5 67.8 2.1 1.3 2.9 4 1.9 6.3s-3.6 3.4-6 2.7c-0.5-0.1-47.1-13.8-108.1-22.1-55.6-7.6-134.6-12.3-196.8 8.4-3.6 4.7-18.2 24.8-34.2 60.2-17 37.5-39.1 100.3-48.1 186.7-0.2 2.4-2.2 4.3-4.6 4.5 0-0.2-0.2-0.2-0.3-0.2z m34.9-256.8c3.9 0 5.9 0.6 6.5 0.8 1.3 0.5 2.4 1.6 2.9 2.9 0.5 1.3 0.4 2.8-0.3 4.1-36.1 67.7-44.8 130.2-45.8 170.7-0.3 14.5 0.2 27.3 1.2 37.9 10.8-70.2 29.7-122.4 44.6-155.4 18.9-41.6 35.5-62.2 36.2-63 0.6-0.7 1.4-1.3 2.3-1.6 64.3-21.9 145.9-17.1 203-9.3 28.9 4 54.6 9.1 73.8 13.5-64.2-33.2-125.7-44.7-168.5-48.3-53.8-4.5-90.2 2.1-90.6 2.2-1.7 0.3-3.5-0.3-4.6-1.6s-1.6-3.1-1.1-4.8c11.3-38.4 35.9-72 57.3-95.8-62.4 48.1-93.5 107.4-93.9 108.1-0.6 1.2-1.8 2.1-3.1 2.5-90 25.2-141.2 70.6-164.5 96.6 93-52.4 130.9-59.5 144.6-59.5z" fill="" p-id="4531"></path></svg>