<svg t="1644588339498" class="icon" viewBox="0 0 1024 1024" version="1.1" xmlns="http://www.w3.org/2000/svg" p-id="2862" width="32" height="32"><path d="M529.8 838.6c67.4-3.5 120.4-41.7 120.4-88.3 0-32.2-10.4-63.9-30.6-93.1-20.1-29.1-7.9-60.2-7.9-92.4v-49.7c-19.3-5.2-61.9-9.5-82.2-12.1-20.2 2.6-55.1 6.9-74.2 12.1l-3 47.7c0 32.2 7.7 65.3-12.4 94.4-20.1 29.1-30.6 60.9-30.6 93.1 0.1 46.6 53.1 84.8 120.5 88.3z" fill="#FFE6C3" p-id="2863"></path><path d="M578.9 501.5c-3.6 0.4-7.2 0.9-10.8 1.4-0.5-0.3-1-0.7-1.5-1-2.7-1.9-4.9-3.8-8.4-4.7-1.3-0.3-1.9 1.3-0.6 1.7 2.9 0.7 5.5 2.6 8 4.4-10.2 1.6-93.6-25.1-111.2-3.9-43.6 52.2-88.9 40.8-139.2 36.7-7.8-4.5-20-10.7-26.5-16.5l-2.5-9.5c-40.2-36-51.9-82.7-51.9-131.2 0-62.2 24.8-131.9 81.9-173.7 58.2-42.5 140.9-56.5 219.1-58.5 78.2 2 153.2 26.4 211.3 68.9 57.1 41.8 89.7 101.1 89.7 163.3 0 16.1-2.5 32-7.2 47.4l-21.1 76.8-144.3 24.8" fill="#DD925F" p-id="2864"></path><path d="M381.7 213.1l-1.4 0.6c-7.9 3.6-11.4 13-7.8 21 2.7 5.8 8.4 9.2 14.4 9.2 2.2 0 4.4-0.5 6.6-1.4l1.2-0.6c8-3.6 11.5-12.9 7.9-20.9-3.6-7.9-12.9-11.5-20.9-7.9zM345.4 274.2c6.5-5.9 7-15.9 1.1-22.3-5.9-6.5-15.9-7-22.3-1.1-36.1 32.7-56.8 79.4-56.8 128.2 0 36.8 13.6 72.1 38.2 99.4 3.1 3.5 7.4 5.2 11.8 5.2 3.8 0 7.6-1.3 10.6-4.1 6.5-5.8 7-15.8 1.2-22.3-19.4-21.5-30-49.3-30-78.3-0.3-39.8 16.7-78 46.2-104.7z" fill="" p-id="2865"></path><path d="M624.6 572.9c0-18.1 3.9-35.5 11.3-51.5-0.6-0.6-1.2-1.2-1.7-1.8-2.1-2.5-4.3-4.9-6.5-7.2-2.3-2.4-4.7-4.6-7.2-6.8s-5.4-5.5-8.7-6.6v0.1c-26.8-10.3-54.9-15.5-83.6-15.5-43.3 0-85.6 12-122.4 34.7l-1.4 0.9c-15 9.2-32.2 14.1-49.7 14.1-26.9 0-52.6-11.4-70.5-31.4l-2.1-2.3c-29.8-33.1-46.3-76-46.3-120.6 0-57.6 24.5-112.9 67.2-151.6 46.2-41.9 106.1-65 168.4-65H585c62.4 0 122.2 23.1 168.4 65 38.7 35.1 62.4 83.1 66.5 135.2 0.7 8.7 8.3 15.2 17 14.5 8.7-0.7 15.2-8.3 14.5-17-4.8-60.1-32.1-115.6-76.8-156.1-52.1-47.2-119.4-73.2-189.7-73.2H471.3c-70.3 0-137.6 26-189.7 73.2C232.3 248.7 204 312.5 204 379c0 52.4 19.3 102.8 54.4 141.7l2.1 2.3c24 26.6 58.2 41.9 94 41.9 23.4 0 46.4-6.5 66.3-18.8l1.4-0.9c3.2-2 6.5-3.8 9.8-5.6v24.7c0 29.6-6.7 59.5-19.2 86.4-14.5 31-22.2 65.5-22.2 99.8 0 57.6 46.8 104.4 104.4 104.4h66.6c57.6 0 104.4-46.8 104.4-104.4 0-20.4-2.7-40.8-8-60.5-0.5 0.1-1-0.2-1-0.8m-95.4 133.9H495c-40.1 0-72.8-32.7-72.8-72.8 0-29.6 6.7-59.5 19.2-86.4 14.5-31 22.2-65.5 22.2-99.8v-38.4c20.7-7 42.4-10.6 64.4-10.6 24.4 0 48.4 4.4 71.3 13.1-4.3 14.3-6.5 29.3-6.5 44.7 0 10 1.1 19.9 3.2 29.5 3.5 21.3 9.9 42.1 19.1 61.6 12.6 26.8 19.2 56.7 19.2 86.4 0.1 40.1-32.5 72.7-72.7 72.7z" fill="" p-id="2866"></path><path d="M850.7 352.7c1.4 33 25 261.5-214.9 168.7l-24-22.4s91 22.2 150.5 8.4c50.6-11.7 72.9-50 57.7-144.8" fill="" p-id="2867"></path><path d="M630.6 534.9c15.3 2.5 86.8 16.1 140.5 3.9L688 520.9l-58.8-5.7" fill="" p-id="2868"></path></svg>