<svg t="1644588421252" class="icon" viewBox="0 0 1024 1024" version="1.1" xmlns="http://www.w3.org/2000/svg" p-id="4732" width="32" height="32"><path d="M349.214716 461.591973l-27.505017 346.220736s-13.48495 216.187291 193.712375 216.187291 186.220736-216.187291 186.220735-216.187291l-10.702341-346.220736z" fill="#FFE5C0" p-id="4733"></path><path d="M759.970569 647.491639c0-63.571906 47.839465-115.050167 107.023411-115.050167a108.414716 108.414716 0 0 1 102.849498 83.906354c54.90301-84.869565 57.364548-210.943144-74.916388-370.622073C702.92709 15.197324 533.937124-30.822742 391.810033 17.016722a177.87291 177.87291 0 0 1 93.538462 159.464883c0 97.391304-73.311037 176.695652-163.745819 176.695653-84.976589 0-154.755853-69.565217-162.996656-158.71572A728.294314 728.294314 0 0 0 119.221405 246.153846C6.097659 403.692308 0.425418 535.117057 43.662876 622.448161A129.070234 129.070234 0 0 1 157.856856 549.244147c72.026756 0 130.354515 62.929766 130.354515 140.414716a149.832776 149.832776 0 0 1-8.668896 50.301003h463.625418a237.913043 237.913043 0 0 0 52.762542-6.314381 118.795987 118.795987 0 0 1-35.959866-86.153846z" fill="#FD7D70" p-id="4734"></path><path d="M321.602676 353.177258c90.434783 0 163.745819-78.983278 163.745819-176.374582a177.87291 177.87291 0 0 0-93.538462-159.464883c-88.615385 29.859532-166.635452 96.32107-233.204013 177.123745C166.846823 283.29097 236.626087 353.177258 321.602676 353.177258zM157.856856 549.244147a129.070234 129.070234 0 0 0-114.19398 72.668896 206.555184 206.555184 0 0 0 181.9398 117.725753h53.511705a149.832776 149.832776 0 0 0 8.668897-50.301003c0.32107-77.16388-58.006689-140.093645-129.926422-140.093646zM969.629431 616.347826a108.414716 108.414716 0 0 0-102.849498-83.906354c-58.9699 0-107.023411 51.478261-107.023411 115.050167a118.795987 118.795987 0 0 0 35.959866 85.618729 286.073579 286.073579 0 0 0 173.913043-116.762542z" fill="#FFE5C0" p-id="4735"></path><path d="M675.63612 160.535117a615.812709 615.812709 0 0 1 62.822743 61.110368c4.602007 5.244147 9.09699 10.702341 13.48495 15.839465 2.461538 2.889632 4.816054 5.886288 7.277592 8.882943l2.889632 3.638796c4.494983 5.886288-1.819398-2.461538 0.749164 0.963211 8.882943 12.093645 17.658863 24.294314 25.792642 36.816053a26.755853 26.755853 0 0 0 46.234114-26.969899 633.471572 633.471572 0 0 0-121.364549-138.702342A26.755853 26.755853 0 0 0 675.63612 160.535117zM891.930435 404.227425c34.461538 0 34.461538-53.511706 0-53.511706s-34.461538 53.511706 0 53.511706z" fill="#FFFFFF" p-id="4736"></path></svg>